<?xml version="1.0" encoding="utf-8"?>
<!-- Generator: Adobe Illustrator 27.5.0, SVG Export Plug-In . SVG Version: 6.00 Build 0)  -->
<svg version="1.1" xmlns="http://www.w3.org/2000/svg" xmlns:xlink="http://www.w3.org/1999/xlink" x="0px" y="0px"
	 viewBox="0 0 750 500" style="enable-background:new 0 0 750 500;" xml:space="preserve">
<g id="BACKGROUND">
	<path style="fill:#E3F4FF;" d="M106.611,334.143c-2.588-1.23-5.387-2.927-8.47-5.199c-40.835-30.089-24.101-105.684,7.751-130.856
		c59.284-46.852,146.939,4.439,195.674,43.101c-9.141-51.712,27.261-104.484,56.997-121.43
		C397,97.854,462.688,91.231,505.579,109.58c70.4,30.117,105.2,96.901,129.452,165.368c69.885-24.947,82.901,55.479,30.326,55.942
		c-20.946,0.185-458.964,0-488.357,0C154.374,330.89,123.298,342.069,106.611,334.143z"/>
	<g>
		<line style="fill:none;stroke:#153556;stroke-miterlimit:10;" x1="683" y1="330.89" x2="718" y2="330.89"/>
		<line style="fill:none;stroke:#153556;stroke-miterlimit:10;" x1="469" y1="330.89" x2="520" y2="330.89"/>
		<line style="fill:none;stroke:#153556;stroke-miterlimit:10;" x1="360" y1="330.89" x2="397" y2="330.89"/>
		<line style="fill:none;stroke:#153556;stroke-miterlimit:10;" x1="177" y1="330.89" x2="278" y2="330.89"/>
		<line style="fill:none;stroke:#153556;stroke-miterlimit:10;" x1="36" y1="330.89" x2="66" y2="330.89"/>
	</g>
	<g>
		<path style="fill:#C7DAEA;" d="M206.069,142.991c0-5.703-4.623-10.327-10.328-10.327c-2.332,0-4.478,0.783-6.208,2.088
			c-2.078-4.458-6.588-7.556-11.832-7.556c-0.053,0-0.105,0.008-0.159,0.008c-2.03-9.894-10.786-17.335-21.28-17.335
			c-10.509,0-19.272,7.46-21.286,17.372c-0.299-0.02-0.595-0.045-0.898-0.045c-7.212,0-13.06,5.848-13.06,13.061
			c0,7.213,5.848,13.06,13.06,13.06h61.664l0,0C201.446,153.317,206.069,148.694,206.069,142.991z"/>
		<path style="fill:#C7DAEA;" d="M594.229,124.789c0-6.895-5.591-12.485-12.486-12.485c-2.819,0-5.414,0.946-7.506,2.524
			c-2.512-5.39-7.964-9.135-14.303-9.135c-0.065,0-0.129,0.009-0.193,0.01c-2.454-11.961-13.04-20.958-25.727-20.958
			c-12.706,0-23.3,9.019-25.735,21.003c-0.361-0.024-0.719-0.055-1.085-0.055c-8.721,0-15.79,7.07-15.79,15.791
			s7.069,15.79,15.79,15.79h74.55l0,0C588.638,137.274,594.229,131.685,594.229,124.789z"/>
		<path style="fill:#C7DAEA;" d="M266.065,84.049c-0.808,0-1.578,0.154-2.292,0.424c-1.971-5.485-7.203-9.414-13.366-9.414
			c-5.84,0-10.851,3.523-13.039,8.558c-1.385-1.295-3.239-2.092-5.285-2.092c-4.28,0-7.75,3.47-7.75,7.75
			c0,4.28,3.47,7.751,7.75,7.751h33.981c3.584,0,6.488-2.905,6.488-6.489C272.554,86.954,269.649,84.049,266.065,84.049z"/>
	</g>
</g>
<g id="OBJECTS">
	<g>
		<g>
			<g>
				<path style="fill:#4FC9B8;" d="M453.799,405.836c-0.676-2.407-0.859-5.865-1.129-8.79c-0.56-6.076-0.42-12.349,0.355-18.404
					c0.554-4.344,2.019-9.325,4.77-12.832c1.32-1.686,3.784-3.888,6.123-3.58c5.692,0.751,4.194,12.564,3.352,16.108
					C464.978,387.953,459.969,398.008,453.799,405.836L453.799,405.836z"/>
				<path style="fill:#9B9B9B;" d="M467.826,367.456v-0.217c-0.039,0.002-3.635,0.034-6.159,1.626
					c1.341-4.014,2.321-6.518,2.352-6.596l-0.2-0.08c-0.03,0.076-1.002,2.559-2.334,6.542c-0.647-3.15-1.953-4.626-2.01-4.69
					l-0.16,0.145c0.014,0.016,1.429,1.613,2.033,4.958c-0.932,2.806-2.024,6.308-3.089,10.214c-0.697-5.823-2.745-9.511-2.767-9.548
					l-0.188,0.104c0.022,0.04,2.174,3.909,2.801,9.992l0.001,0.014c-0.8,2.97-1.577,6.16-2.255,9.444
					c-1.14-6.11-2.939-8.871-2.957-8.898l-0.18,0.118c0.02,0.028,1.896,2.907,3.021,9.342l0.001,0.004
					c-0.516,2.556-0.968,5.164-1.317,7.768c-0.942-4.82-1.974-6.838-1.983-6.858l-0.191,0.101c0.012,0.02,1.117,2.184,2.084,7.438
					c-0.32,2.512-0.545,5.015-0.637,7.453l0.215,0.009c0.092-2.438,0.315-4.938,0.637-7.446c1.876-3.113,6.986-4.642,7.037-4.657
					l-0.061-0.206c-0.051,0.014-4.828,1.443-6.911,4.376c0.354-2.668,0.815-5.343,1.345-7.962c3.33-3.926,9.034-4.179,9.092-4.181
					l-0.008-0.216c-0.058,0.001-5.578,0.248-8.998,3.977c0.686-3.341,1.477-6.585,2.289-9.6c2.234-2.928,9.256-3.449,9.328-3.454
					l-0.016-0.214c-0.281,0.019-6.639,0.493-9.181,3.183c1.067-3.918,2.163-7.431,3.097-10.242
					C464.031,367.49,467.787,367.456,467.826,367.456z"/>
			</g>
			<g>
				<path style="fill:#4FC9B8;" d="M452.829,411.473c-2.362-0.819-5.307-2.64-7.862-4.088c-5.31-3.006-10.381-6.701-14.913-10.793
					c-3.251-2.934-6.505-6.978-7.817-11.238c-0.63-2.047-1.031-5.326,0.556-7.071c3.863-4.246,12.71,3.724,15.14,6.439
					C444.521,392.089,449.921,401.94,452.829,411.473L452.829,411.473z"/>
				<path style="fill:#9B9B9B;" d="M429.313,378.055l-0.178-0.123c-0.021,0.031-2.046,3.003-2.178,5.986
					c-2.531-3.392-4.031-5.627-4.076-5.695l-0.18,0.119c0.046,0.068,1.529,2.282,4.041,5.648c-2.957-1.266-4.914-1.036-4.998-1.024
					l0.027,0.214c0.021-0.003,2.139-0.254,5.23,1.157c1.773,2.367,4.026,5.262,6.626,8.364c-5.179-2.75-9.377-3.171-9.419-3.176
					l-0.022,0.216c0.045,0.003,4.451,0.445,9.805,3.4l0.012,0.007c1.982,2.351,4.158,4.81,6.469,7.239
					c-5.668-2.55-8.962-2.647-8.996-2.647l-0.004,0.215c0.033,0,3.469,0.101,9.396,2.849l0.003,0.002
					c1.805,1.882,3.689,3.74,5.627,5.513c-4.495-1.976-6.738-2.279-6.762-2.283l-0.028,0.215c0.024,0.003,2.433,0.328,7.298,2.53
					c1.879,1.697,3.807,3.31,5.758,4.777l0.129-0.171c-1.949-1.468-3.873-3.078-5.751-4.773c-1.487-3.317,0.173-8.385,0.19-8.436
					l-0.204-0.067c-0.017,0.049-1.57,4.789-0.351,8.172c-1.988-1.813-3.922-3.717-5.771-5.646c-1.323-4.975,1.723-9.805,1.753-9.853
					l-0.182-0.116c-0.03,0.048-2.978,4.723-1.868,9.658c-2.353-2.47-4.564-4.97-6.577-7.358c-1.129-3.503,2.449-9.568,2.485-9.63
					l-0.185-0.11c-0.145,0.243-3.383,5.736-2.624,9.356c-2.608-3.112-4.868-6.016-6.646-8.386
					C427.176,381.19,429.291,378.086,429.313,378.055z"/>
			</g>
			<g>
				<path style="opacity:0.5;fill:#C1C1C1;" d="M434.837,381.762c0,0-2.343-2.057-4.108-2.971c0,0,6.232,20.314,19.678,30.353
					l0.176-1.218l-6.404-16.687L434.837,381.762z"/>
				<g>
					<path style="fill:#4FC9B8;" d="M453.078,411.884c-0.261-1.658-3.6-5.114-4.715-6.753c-3.662-5.387-7.052-10.772-10.156-16.517
						c-4.989-9.236-9.883-21.641-8.686-32.347c0.442-3.957,2.446-10.537,7.435-10.478c3.726,0.046,6.381,4.298,7.915,7.246
						c4.032,7.747,5.587,16.573,6.878,25.124c1.483,9.827,2.053,19.858,2.68,29.812L453.078,411.884z"/>
					<path style="fill:#9B9B9B;" d="M449.238,398.258c0.508-8.703,3.44-14.242,3.47-14.297l-0.28-0.151
						c-0.029,0.054-2.83,5.342-3.459,13.698c-1.297-3.635-2.476-7.131-3.541-10.467c1.828-11.711,5.26-15.685,5.295-15.724
						l-0.239-0.213c-0.14,0.159-3.403,3.933-5.269,15.263c-1.398-4.41-2.604-8.541-3.639-12.35
						c1.213-10.74,5.57-15.901,5.614-15.951l-0.241-0.209c-0.043,0.051-4.25,5.03-5.592,15.347
						c-1.271-4.731-2.275-8.947-3.064-12.567c0.004-8.326,3.51-12.179,3.546-12.218l-0.232-0.216
						c-0.034,0.036-3.249,3.56-3.599,11.102c-1.779-8.396-2.326-13.237-2.338-13.35l-0.317,0.034
						c0.013,0.116,0.597,5.279,2.519,14.198c-1.182-1.288-4.84-5.044-8.039-5.827l-0.075,0.309c3.656,0.895,8.115,5.992,8.251,6.148
						c0.786,3.603,1.786,7.79,3.046,12.484c-1.183-1.496-4.578-5.062-10.969-6.536l-0.072,0.311
						c8.013,1.848,11.231,7.02,11.263,7.071l0.014,0.024c1.023,3.76,2.21,7.831,3.586,12.176c-1.134-1.242-4.217-3.984-10.238-5.275
						l-0.067,0.313c7.745,1.658,10.532,5.731,10.56,5.772l0.004,0.005c0.993,3.109,2.086,6.358,3.279,9.727
						c-0.961-1.001-3.039-2.41-7.543-3.781l-0.092,0.306c6.033,1.836,7.6,3.728,8.002,4.51c1.371,3.827,2.875,7.809,4.525,11.924
						l0.295-0.119C452.014,405.775,450.565,401.947,449.238,398.258z"/>
				</g>
				<path style="opacity:0.5;fill:#C1C1C1;" d="M452.787,380.701c0,0,3.125,9.298,2.906,18.759l-1.266,8.512
					c0,0-1.367-20.134-1.871-23.707L452.787,380.701z"/>
			</g>
			<path style="opacity:0.5;fill:#C1C1C1;" d="M467.089,364.828c0,0,1.267,3.19,1.247,6.531l-12.623,33.429l-0.033-9.232
				C455.68,395.556,458.022,379.179,467.089,364.828z"/>
			<g>
				<path style="fill:#4FC9B8;" d="M452.923,411.822c0.28-3.681,1.774-8.575,2.88-12.771c2.295-8.719,5.666-17.355,9.803-25.371
					c2.968-5.748,7.522-11.922,13.115-15.399c2.686-1.671,7.221-3.482,10.313-1.87c7.522,3.922-0.535,19.563-3.5,24.056
					C477.488,392.654,465.448,404.08,452.923,411.822L452.923,411.822z"/>
				<path style="fill:#9B9B9B;" d="M491.813,365.642l0.109-0.3c-0.053-0.019-5.061-1.794-9.373-0.857
					c3.893-4.896,6.522-7.878,6.604-7.969l-0.239-0.211c-0.079,0.09-2.685,3.044-6.548,7.897c0.695-4.698-0.371-7.409-0.419-7.526
					l-0.295,0.12c0.013,0.029,1.169,2.962,0.315,7.909c-2.713,3.426-6.001,7.735-9.455,12.617c1.977-8.435,1-14.59,0.989-14.653
					l-0.314,0.052c0.01,0.064,1.038,6.526-1.168,15.287l-0.005,0.02c-2.612,3.717-5.306,7.752-7.907,11.971
					c1.508-9.06,0.408-13.803,0.397-13.85l-0.31,0.075c0.013,0.048,1.162,4.992-0.532,14.496l-0.002,0.006
					c-2.008,3.286-3.955,6.678-5.758,10.115c1.131-7.168,0.721-10.488,0.715-10.523l-0.315,0.042
					c0.005,0.035,0.446,3.599-0.87,11.381c-1.715,3.323-3.293,6.684-4.656,10.024l0.295,0.119c1.361-3.336,2.938-6.693,4.652-10.014
					c4.18-3.376,12.046-2.91,12.125-2.904l0.02-0.317c-0.076-0.005-7.434-0.44-11.807,2.577c1.842-3.524,3.834-7.003,5.894-10.371
					c6.608-3.766,14.656-1.231,14.736-1.206l0.097-0.302c-0.08-0.026-7.867-2.48-14.5,0.968c2.641-4.292,5.381-8.396,8.035-12.17
					c4.582-2.931,14.594-0.104,14.693-0.074l0.088-0.306c-0.4-0.116-9.466-2.674-14.353-0.227c3.463-4.898,6.761-9.221,9.479-12.651
					C486.529,363.768,491.761,365.622,491.813,365.642z"/>
			</g>
		</g>
	</g>
	<g>
		<g>
			<path style="fill:#FFAF99;" d="M229.404,226.451c-6.54,2.033-9.186,4.6-14.639,4.482c-1.008-0.021-6.384-0.467-7.726,6.482
				c-0.111,0.575-0.019,1.811,0.949,2.257l5.183,1.371c0,0-0.08-3.081,4.437-1.409c2.967,1.099,2.915-1.96,4.802-1.959
				c2.501,0.001,11.026-2.047,11.026-2.047L229.404,226.451z"/>
			<path style="fill:#EDEDED;" d="M327.089,403.029c-0.189-0.153-0.945,9.917-0.945,9.917l13.244-2.123v-11.489L327.089,403.029z"/>
			<polygon style="fill:#EDEDED;" points="272.306,383.287 263.416,395.069 255.932,394.181 252.821,390.147 251.885,387.916 
				263.087,373.56 			"/>
			<g>
				<polygon style="fill:none;" points="334.399,412.946 334.403,412.946 334.403,412.946 				"/>
			</g>
			<path style="fill:#FFAF99;" d="M223.881,237.552c-3.237,2.531-5.708,2.379-6.701,3.491c-0.993,1.111-1.748,2.078-2.507,2.428
				c-0.528,0.244-1.004,1.553-1.465,2.516c-0.201,0.42-0.673,0.463-0.982,0.038c-0.372-0.513-0.693-1.279-0.3-2.168
				c0.718-1.625,2.155-4.875,2.155-4.875l4.871-2.209l2.938-0.389L223.881,237.552z"/>
			<path style="fill:#F29A86;" d="M225.259,227.97c-0.294,2.146-0.373,5.386,1.107,9.178l3.71-0.755c0,0-0.106-4.486,0-4.953
				c0.106-0.467-4.123-3.754-4.123-3.754L225.259,227.97z"/>
			<path style="opacity:0.5;fill:#C1C1C1;" d="M365.219,424.964c0,3.643-25.372,6.6-56.668,6.6c-31.296,0-56.666-2.956-56.666-6.6
				c0-3.646,25.37-6.601,56.666-6.601C339.847,418.363,365.219,421.318,365.219,424.964z"/>
			<path style="fill:#102B51;" d="M320.765,288.309c-1.878,15.227-15.975,50.897-17.836,56.941
				c-1.579,5.132-21.339,29.598-31.827,41.117c-0.434,0.477-0.711,2.801-1.098,3.225c-1.881,2.057-3.203,4-3.626,4.442
				c-1.289,1.352-6.243,0.638-9.47-1.697c-3.312-2.397-4.746-7.521-3.919-9.295c0.228-0.488,2.39-3.22,3.436-4.923
				c0.314-0.509,2.02-1.166,2.422-1.743c9.176-13.173,14.549-29.7,26.701-44.507c3.15-28.84,3.298-53.721,8.235-70.922
				c0,0,26.568,7.834,54.639,3.611c3.284,29.305,1.52,62.215-0.145,78.54c-0.587,5.762-3.346,35.79-6.059,54.33
				c-0.098,0.686,0.853,1.26,0.759,1.905c-0.382,2.671-0.865,6.354-1.086,8.17c-0.349,2.044-16.462,5.766-17.189,3.085
				c-0.393-1.451-0.239-7.946,0.01-10.23c0.057-0.501,1.42-1.544,1.432-2.049c0.433-18.621-1.552-43.421,1.588-58.625l-4.9-51.506
				L320.765,288.309z"/>
			<path style="fill:#EDEDED;" d="M324.362,412.468c-0.015,1.661,0,0,0.088,1.155c0.06,0.797-0.871,5.951-1.455,9.088
				c-0.265,1.418,0.211,2.474,1.336,2.553c5.207,0.371,19.129,1.406,22.383,1.464c3.954,0.072,11.397-0.058,12.127-1.591
				c1.084-2.292,0.523-6.596-7.331-9.152c-3.933-1.281-8.5-5.704-8.516-4.85c0,0-0.905-7.42-3.949-6.865
				c-3.405,0.621-4.268,5.744-8.624,5.278C325.563,409.03,324.387,409.567,324.362,412.468z"/>
			<g>
				<path style="fill:none;" d="M358.842,421.278c0.003,0.003,0.003,0.01,0.01,0.017
					C358.847,421.288,358.844,421.281,358.842,421.278z"/>
				<path style="fill:#FFFFFF;" d="M358.852,421.295c-0.006-0.007-0.006-0.014-0.01-0.017l0,0l0.03,0.08
					C358.863,421.336,358.859,421.315,358.852,421.295z"/>
				<path style="fill:#102B51;" d="M343.041,423.44c-2.044,1.223-4.701,1.678-7.925-1.409c-3.226-3.087-11.761-1.271-11.583-2.271
					l0,0c-0.186,1.049-0.377,2.077-0.538,2.951c-0.265,1.418,0.211,2.474,1.336,2.553c5.207,0.371,19.129,1.406,22.383,1.464
					c3.954,0.072,11.397-0.058,12.127-1.591c0.453-0.956,0.609-2.266,0.075-3.649C359.058,423.163,345.006,422.26,343.041,423.44z"
					/>
			</g>
			<path style="fill:#F48C8C;" d="M328.686,161.961l-12.379,0.145l-6.294,1.324l-12.316,4.266l-1.916,33.979
				c-1.033,17.205-3.627,32.738-6.346,49.931c-0.111,0.701,3.774,4.289,3.649,4.986c-0.456,2.541-1.009,5.053-1.68,7.526
				c-0.902,3.325,58.723,3.585,58.126-0.151c-0.385-2.412-0.704-5.044-0.962-7.81c-0.094-1,2.379-3.87,2.3-4.901
				c-0.799-10.461-3.402-20.453-3.069-29.365c0.535-14.396,0.812-28.804,1.268-43.203c0.022-0.644-0.556-9.816-0.778-9.4
				l-12.566-5.165L328.686,161.961z"/>
			<path style="fill:#EDEDED;" d="M348.154,209.486l0.723-13.892l-1.958-11.001c0,0,0.956,35.579,0.58,46.712L348.154,209.486z"/>
			<path style="fill:#FFAF99;" d="M356.686,265.342c-4.154,3.148-3.386,7.786-4.062,10.811c-0.462,2.054-1.818,4.308,0,3.76
				c3.26-0.979,3.158-6.257,3.158-6.257s1,0.581,1.064,1.93c0.115,2.329-3,6.892-3.495,9.165c-0.525,2.419,4.688,0.722,6.885-1.844
				c4.04-4.369,4.663-12.538,4.712-13.293c0.104-1.634,0.476-6.252,0.476-6.252l-8.646-6.832
				C356.779,256.529,357.337,264.813,356.686,265.342z"/>
			<path style="fill:#F48C8C;" d="M344.717,190.64l2.895-21.693c4.283,1.97,14.437,9.649,17.812,28.585
				c4.318,24.224,5.02,44.084,4.597,56.061c-0.023,0.654-2.697,2.09-2.723,2.684c-0.212,4.898-0.499,7.79-0.531,8.052
				c-0.323,2.563-10.519,1.214-10.435-1.291l-0.473-7.231l-2.773-2.33l-0.583-30.949L344.717,190.64z"/>
			<path style="fill:#F48C8C;" d="M297.696,167.696c-4.704,2.634-32.389,34.821-34.891,36.714
				c5.076,3.642,6.562,14.837,15.859,11.713c5.942-7.496,21.012-21.745,21.012-21.745L297.696,167.696z"/>
			<polygon style="opacity:0.5;fill:#EA6E6E;" points="295.975,197.649 301.567,192.182 291.571,238.046 294.457,216.101 			"/>
			<polygon style="fill:#EDEDED;" points="311.631,163.091 315.907,177.181 324.009,172.821 322.701,170.454 316.971,174.787 			"/>
			<polyline style="fill:#EDEDED;" points="326.339,170.799 326.475,170.908 331.998,175.407 334.728,165.508 332.418,178.129 
				325.954,172.268 			"/>
			<path style="fill:#EDEDED;" d="M254.459,382.786c-1.632-1.288-1.863,1.487-2.702,2.382c-0.579,0.617-5.267,3.567-8.128,5.349
				c-1.298,0.805-1.326,1.706-1.035,2.88c1.707,6.869,16.166,27.085,24.914,24.398c2.564-0.788,2.242-6.455-0.861-12.754
				c-1.933-3.918-0.789-6.524,0.201-12.067c0.36-2.012-1.69-2.568-7.762-0.593C254.681,393.813,256.091,384.076,254.459,382.786z"/>
			<g>
				<path style="fill:#102B51;" d="M259.715,409.959c-3.438-3.226-5.836-2.375-7.545-4.765c-1.708-2.391,0.929-5.356-0.416-7.651
					c-1.345-2.293-6.146-8.254-4.842-9.091c-1.148,0.73-2.319,1.465-3.282,2.065c-1.298,0.805-1.326,1.706-1.035,2.88
					c1.707,6.869,16.166,27.085,24.914,24.398c1.123-0.345,1.691-1.629,1.716-3.487
					C267.618,415.676,263.148,413.189,259.715,409.959z"/>
			</g>
			<path style="fill:#FFAF99;" d="M315.863,142.034c0.406,6.777,1.675,17.621,0.429,18.605c-1.249,0.983-1.619,1.561-4.098,2.333
				c0,0,2.084,8.846,11.815,9.849c0.553-0.019,0.71,9.514,1.2,9.444c0.898-0.127,0.993-8.761,1.683-9.033
				c5.527-2.17,7.85-8.224,7.837-9.415l-3.625-2.056c0,0,0.202-3.155,0.202-6.236c0-4.614-2.383-13.404-2.383-13.404
				L315.863,142.034z"/>
			<path style="fill:#F29A86;" d="M331.305,155.879c-2.469,0.025-10.475-6.12-10.963-7.693c-0.49-1.574-1.804-3.342-1.804-3.342
				s-0.146,7.347,3.641,10.969c5.131,4.909,9.042,0.936,9.042,0.936S331.221,156.749,331.305,155.879z"/>
			<path style="fill:#FFAF99;" d="M312.263,134.208c0.488,7.689,7.115,13.526,14.803,13.038c7.69-0.488,13.67-7.871,13.181-15.56
				c-0.102-1.659-0.142-4.357-0.768-5.799c-3.794-8.743-17.655-10.318-24.769-2.141C312.227,126.6,312.044,130.749,312.263,134.208z
				"/>
			<path style="fill:#FFAF99;" d="M340.048,134.848c0.029,7.366-3.229,19.839-9.72,21.355c-3.047,0.71-10.785-4.134-11.497-9.238
				c-0.711-5.103-1.457-10.677-1.457-10.677"/>
			<path style="fill:#0E263F;" d="M338.849,139.56c-0.113,1.015-0.817,1.773-1.575,1.69c-0.757-0.083-1.279-0.976-1.167-1.996
				c0.113-1.02,0.816-1.777,1.574-1.693C338.438,137.645,338.962,138.538,338.849,139.56z"/>
			<path style="fill:#0E263F;" d="M328.646,138.89c-0.047,1.021-0.706,1.823-1.467,1.788c-0.761-0.037-1.336-0.896-1.287-1.919
				c0.048-1.026,0.701-1.825,1.462-1.79C328.114,137.006,328.692,137.864,328.646,138.89z"/>
			<path style="fill:#F29A86;" d="M335.31,146.2c-0.256,0.122-1.625,0.607-2.064,0.527c-0.444-0.076-2.305-0.811-2.405-1.034
				C330.738,145.471,335.791,145.968,335.31,146.2z"/>
			<g>
				<path style="fill:#0E263F;" d="M328.562,134.317c-0.011-0.012-0.07-0.001-0.203-0.023c-0.131-0.016-0.31-0.051-0.516-0.076
					c-0.203-0.034-0.432-0.061-0.664-0.081c-0.231-0.027-0.472-0.034-0.715-0.028c-0.122,0.002-0.241,0.033-0.365,0.032
					c-0.122,0.02-0.24,0.055-0.363,0.068c-0.236,0.067-0.472,0.124-0.674,0.206c-0.215,0.051-0.386,0.141-0.513,0.19
					c-0.134,0.045-0.21,0.071-0.21,0.071l-0.035,0.012c-0.276,0.093-0.575-0.055-0.667-0.331c-0.05-0.149-0.029-0.306,0.043-0.433
					c0,0,0.188-0.325,0.612-0.728c0.211-0.203,0.501-0.396,0.837-0.577c0.35-0.154,0.747-0.301,1.17-0.338
					c0.42-0.054,0.85-0.021,1.231,0.073c0.378,0.106,0.707,0.26,0.955,0.439c0.251,0.175,0.429,0.358,0.54,0.502
					c0.112,0.138,0.178,0.259,0.168,0.246c0.214,0.174,0.246,0.489,0.072,0.704C329.091,134.46,328.776,134.492,328.562,134.317z"/>
			</g>
			<g>
				<path style="fill:#0E263F;" d="M336.329,133.898c0,0,0.012-0.011,0.035-0.032c0.011-0.016,0.063-0.058,0.176-0.109
					c0.122-0.054,0.182-0.074,0.284-0.113c0.095-0.03,0.198-0.067,0.315-0.09c0.454-0.085,1.08-0.126,1.7,0.094
					c0.311,0.091,0.609,0.262,0.863,0.454c0.251,0.205,0.436,0.451,0.561,0.673c0.256,0.45,0.228,0.795,0.245,0.788
					c0.099,0.258-0.03,0.547-0.288,0.646c-0.258,0.099-0.547-0.03-0.646-0.288c0,0-0.051-0.036-0.116-0.1
					c-0.057-0.071-0.169-0.143-0.266-0.236c-0.227-0.164-0.5-0.341-0.863-0.48c-0.355-0.132-0.781-0.233-1.096-0.265
					c-0.077-0.011-0.147-0.02-0.21-0.028c-0.052-0.007-0.128-0.007-0.112-0.022c0.004-0.021-0.027-0.032-0.068-0.017
					c-0.031,0.006-0.048,0.009-0.048,0.009l-0.022,0.004c-0.281,0.053-0.551-0.132-0.603-0.412
					C336.136,134.193,336.202,134.015,336.329,133.898z"/>
			</g>
			<path style="fill:#FFFFFF;" d="M335.079,149.508c-0.179-0.417-6.175-0.625-6.598-0.417c-0.424,0.208,1.763,2.612,3.115,2.713
				C332.641,151.882,335.294,150.002,335.079,149.508z"/>
			<path style="fill:#0E263F;" d="M340.276,133.739c-0.001-0.001-0.797-7.851-1.412-7.427c0,0-7.809,2.706-13.591-0.816
				c-3.415-2.079-5.331,2.184-5.353,6.638c-1.359-0.981-7.199-2.98-8.349-4.161c0.61-4.606,3.252-4.883,6.966-6.719
				c4.537-2.243,12.009-5.337,16.485-2.997C341.954,121.88,341.602,128.572,340.276,133.739z"/>
			<path style="fill:#0E263F;" d="M320.989,126.94c-1.292,2.655-1.462,11.181-1.13,14.261c0.25,1.082-1.753,0.813-1.845-0.019
				c-0.09-0.834-0.486-5.059-2.65-5.476c-2.07-0.399,1.295,6.339,1.365,6.538c-2.544-3.519-6.174-9.149-5.112-14.632
				c0.003,0,4.558-0.944,4.558-0.944L320.989,126.94z"/>
			<polygon style="fill:#EA6E6E;" points="316.06,159.992 311.387,162.557 316.971,174.787 324.009,172.821 			"/>
			<path style="fill:#EA6E6E;" d="M326.891,173.233l4.263-13.056l4.066,3.096c0,0-2.122,10.029-3.221,12.134L326.891,173.233z"/>
			<path style="fill:#F48C8C;" d="M262.806,204.41c-5.015,3.216-17.876,8.436-27.562,13.17c-0.806,0.394-1.629,4.562-2.364,4.917
				c-2.452,1.185-4.467,2.137-5.753,2.713c-3.566,1.273,1.81,12.905,5.002,11.871c1.024-0.32,2.964-1.073,5.491-2.118
				c0.558-0.231,3.085,1.678,3.697,1.42c12.422-5.234,34.275-17.298,37.348-20.261c3.908-3.77-5.269-9.943-5.269-9.943
				L262.806,204.41z"/>
			<g style="opacity:0.5;">
				<path style="fill:#EA6E6E;" d="M232.916,228.796c-1.434-4.938-0.037-6.298-0.037-6.298c-2.452,1.185-4.467,2.137-5.753,2.713
					c-3.566,1.273,1.81,12.905,5.002,11.871c0.958-0.299,3.199-1.176,5.491-2.118C235.482,233.747,233.783,231.78,232.916,228.796z"
					/>
			</g>
			<path style="opacity:0.5;fill:#EA6E6E;" d="M355.86,255.805c1.49,1.057,9.82,1.988,11.439,0.471c0,0-0.281,6.817-0.531,8.052
				c-0.25,1.235-3.106,1.495-5.62,1.218c-2.514-0.274-5.17-0.853-5.289-2.668C355.741,261.063,355.86,255.805,355.86,255.805z"/>
			<path style="fill:#F29A86;" d="M356.686,265.342c0,0,8.528,1.525,8.29,3.867l0.287-3.803c0,0-5.457,0.91-8.338-0.958
				L356.686,265.342z"/>
			<path style="opacity:0.5;fill:#EA6E6E;" d="M293.084,256.592c1.489,1.904,54.183,1.713,55.532-0.787
				c1.348-2.498-0.048,0.352-0.048,0.352s0.675,5.918,0.962,7.81c0.287,1.888-13.188,2.35-13.188,2.35s-25.826,1.465-39.05-0.564
				c-3.436-0.527-6.161-0.565-5.828-1.853C291.798,262.611,293.084,256.592,293.084,256.592z"/>
			<polygon style="opacity:0.5;fill:#EA6E6E;" points="348.358,205.554 347.898,193.677 352.503,222.525 			"/>
			<path style="fill:#0E263F;" d="M340.493,132.836c0.551-3.11,3.173-13.85,4.624-14.783c1.451-0.934-18.548-10.762-27.742,1.778
				c0,0-5.285-0.711-6.813,3.592c-2.037,5.736,2.328,14.132,2.328,14.132l7.261-12.436l4.77-2.664l11.171,1.334l4.183,2.878
				L340.493,132.836z"/>
			<path style="fill:#F29A86;" d="M312.305,140.086c0.486,2.456,2.609,5.511,4.391,4.437c1.433-0.866,0.251-8.281-1.745-8.553
				C312.801,135.678,311.817,137.628,312.305,140.086z"/>
		</g>
		<g>
			<path style="opacity:0.5;fill:#C1C1C1;" d="M165.251,424.785c0,3.439-23.958,6.23-53.512,6.23c-29.553,0-53.51-2.791-53.51-6.23
				c0-3.444,23.957-6.234,53.51-6.234C141.293,418.551,165.251,421.341,165.251,424.785z"/>
			<g>
				<path style="fill:#4FC9B8;" d="M108.622,422.191c-12.088-5.389-44.382-19.626-44.382-19.626s-14.566-4.549-9.058-20.09
					c5.509-15.541,59.415-167.631,59.415-167.631l89.848,39.732l-74.074,159.569C130.371,414.147,124.201,429.139,108.622,422.191z"
					/>
				<g>
					<path style="opacity:0.5;fill:#C1C1C1;" d="M142.765,387.449c-32.987-14.588-44.278-3.367-55.118,19.761l-0.017-0.09
						c0,0-8.069-3.567-19.634-8.682c-10.671-4.72-13.438-13.096-11.669-19.193c-0.49,1.38-0.876,2.472-1.145,3.23
						c-5.509,15.541,9.058,20.09,9.058,20.09s12.288,5.418,24.541,10.834v-0.001c7.611,3.365,15.208,6.729,19.841,8.793
						c15.579,6.947,21.749-8.045,21.749-8.045L142.765,387.449z"/>
					<polygon style="fill:#C1C1C1;" points="56.855,377.757 56.852,377.768 56.856,377.756 					"/>
				</g>
				<g>
					<path style="fill:#4FC9B8;" d="M210.376,247.359c0.222-0.503-0.007-1.097-0.51-1.319l-92.601-40.95
						c-0.503-0.222-1.097,0.007-1.319,0.51l-3.235,7.317c-0.222,0.503,0.007,1.097,0.51,1.319l92.6,40.949
						c0.503,0.223,1.097-0.007,1.319-0.51L210.376,247.359z"/>
				</g>
				<path style="fill:#0E263F;" d="M135.068,416.2c-4.468,10.102-16.278,14.67-26.379,10.201
					c-10.102-4.468-14.67-16.277-10.202-26.378c4.467-10.102,16.278-14.67,26.379-10.203
					C134.968,394.288,139.536,406.099,135.068,416.2z"/>
				
					<rect x="61.875" y="399.683" transform="matrix(0.4043 -0.9146 0.9146 0.4043 -331.3047 298.2628)" style="fill:#4FC9B8;" width="2.894" height="7.578"/>
				<path style="fill:#EDEDED;" d="M126.73,412.513c-2.431,5.497-8.857,7.981-14.354,5.551c-5.497-2.431-7.982-8.857-5.551-14.354
					c2.431-5.495,8.856-7.981,14.354-5.551C126.676,400.589,129.161,407.016,126.73,412.513z"/>
				<path style="fill:#DCDEE2;" d="M127.385,411.034c-2.431,5.495-8.857,7.981-14.354,5.551c-5.497-2.432-7.983-8.858-5.551-14.355
					c2.431-5.496,8.857-7.98,14.354-5.551C127.33,399.109,129.815,405.537,127.385,411.034z"/>
				<path style="fill:#0E263F;" d="M121.62,410.254c-1.184,2.673-4.31,3.883-6.983,2.699c-2.674-1.183-3.884-4.308-2.702-6.982
					c1.183-2.675,4.309-3.883,6.983-2.701C121.593,404.453,122.803,407.579,121.62,410.254z"/>
				<polygon style="opacity:0.5;fill:#C1C1C1;" points="200.854,262.315 111.74,222.906 114.598,214.845 204.303,254.515 				"/>
				<polygon style="fill:#FFBE5F;" points="205.603,239.976 193.694,227.635 125.179,204.41 123.632,207.906 204.056,243.472 				
					"/>
				<g>
					<path style="fill:#FFAB24;" d="M135.074,208.229c-0.223-0.099-0.323-0.359-0.225-0.583l1.876-4.24
						c0.098-0.223,0.359-0.324,0.581-0.225l16.805,7.432c0.223,0.098,0.324,0.358,0.225,0.582l-1.208,2.731
						c-0.098,0.223-0.358,0.324-0.583,0.226c-0.223-0.099-0.323-0.359-0.224-0.583l1.029-2.328l-15.998-7.075l-1.697,3.837
						C135.558,208.226,135.297,208.327,135.074,208.229z"/>
				</g>
				
					<rect x="162.706" y="179.972" transform="matrix(0.4044 -0.9146 0.9146 0.4044 -106.769 283.923)" style="fill:#FFAB24;" width="3.823" height="87.937"/>
				
					<rect x="201.915" y="240.509" transform="matrix(0.4044 -0.9146 0.9146 0.4044 -97.7066 336.2702)" style="fill:#4FC9B8;" width="14.852" height="5.294"/>
				
					<rect x="207.638" y="241.619" transform="matrix(0.4044 -0.9146 0.9146 0.4044 -99.0099 336.4941)" style="opacity:0.5;fill:#C1C1C1;" width="2.426" height="5.293"/>
				<g>
					<path style="opacity:0.5;fill:#B2B4C1;" d="M141.213,296.389c0.484-0.027,4.562-0.485,4.991-0.537
						c0.52-0.06,0.779-0.319,0.713-0.987c-0.195-1.968-0.735-6.84-0.914-8.468c-0.22-2.047-6.479-4.789-8.235-3.59
						c-1.41,0.966-5.427,3.939-6.958,5.074l-1.006-1.376c0,0-0.343-0.543-0.49,0.339c-0.122,0.732-0.771,4.935-1.006,6.475
						c-0.054,0.351,0.09,0.59,0.388,0.638c1.487,0.232,6,0.934,6.688,1.043c0.828,0.13,0.283-0.468,0.283-0.468l-0.946-1.296
						l4.967-3.629c0,0,0.631,5.748,0.681,6.19C140.416,296.239,140.729,296.416,141.213,296.389z"/>
					<path style="opacity:0.5;fill:#B2B4C1;" d="M129.635,302.945c-0.303-0.781-0.547-0.012-0.547-0.012l-0.65,1.471l-5.626-2.487
						c0,0,4.664-3.424,5.022-3.686c0.36-0.263,0.355-0.623,0.089-1.025c-0.265-0.404-2.7-3.709-2.959-4.056
						c-0.314-0.419-0.664-0.515-1.212-0.123c-1.607,1.151-5.555,4.056-6.877,5.022c-1.662,1.216-0.907,8.008,1.01,8.929
						c1.538,0.737,6.121,2.729,7.872,3.489l-0.689,1.558c0,0-0.299,0.567,0.538,0.255c0.693-0.258,4.66-1.799,6.109-2.363
						c0.333-0.13,0.468-0.375,0.36-0.655C131.533,307.855,129.887,303.596,129.635,302.945z"/>
					<path style="opacity:0.5;fill:#B2B4C1;" d="M148.534,312.566c-0.13-1.705-0.698-6.669-0.916-8.561l1.694-0.184
						c0,0,0.643-0.025-0.045-0.595c-0.573-0.47-3.89-3.134-5.105-4.108c-0.278-0.224-0.557-0.217-0.746,0.018
						c-0.945,1.171-3.81,4.728-4.249,5.27c-0.525,0.653,0.264,0.48,0.264,0.48l1.597-0.172l0.658,6.115c0,0-5.292-2.327-5.7-2.507
						c-0.408-0.181-0.717,0.003-0.934,0.437c-0.22,0.43-1.861,4.192-2.032,4.589c-0.208,0.482-0.115,0.835,0.497,1.112
						c1.804,0.816,6.291,2.781,7.79,3.443C143.19,318.739,148.696,314.688,148.534,312.566z"/>
					<path style="fill:#FFFFFF;" d="M141.13,296.065c0.482-0.027,4.561-0.486,4.991-0.539c0.52-0.059,0.78-0.316,0.713-0.986
						c-0.194-1.969-0.736-6.839-0.91-8.467c-0.222-2.047-6.484-4.789-8.24-3.59c-1.407,0.964-5.425,3.938-6.956,5.076l-1.003-1.379
						c0,0-0.343-0.542-0.492,0.34c-0.122,0.73-0.771,4.933-1.007,6.475c-0.055,0.35,0.09,0.59,0.388,0.636
						c1.489,0.233,5.999,0.936,6.69,1.044c0.826,0.13,0.28-0.468,0.28-0.468l-0.946-1.296l4.968-3.629c0,0,0.631,5.749,0.678,6.191
						C140.333,295.915,140.645,296.089,141.13,296.065z"/>
					<path style="fill:#FFFFFF;" d="M129.551,302.62c-0.303-0.781-0.547-0.011-0.547-0.011l-0.649,1.468l-5.626-2.488
						c0,0,4.664-3.421,5.023-3.682c0.358-0.266,0.355-0.623,0.09-1.028c-0.265-0.403-2.703-3.706-2.961-4.055
						c-0.312-0.419-0.665-0.515-1.212-0.124c-1.605,1.153-5.553,4.057-6.875,5.024c-1.665,1.214-0.907,8.008,1.009,8.929
						c1.536,0.737,6.121,2.73,7.871,3.486l-0.689,1.559c0,0-0.298,0.57,0.54,0.258c0.694-0.261,4.659-1.802,6.109-2.365
						c0.331-0.13,0.468-0.374,0.358-0.657C131.451,307.531,129.803,303.271,129.551,302.62z"/>
					<path style="fill:#FFFFFF;" d="M148.45,312.242c-0.128-1.705-0.695-6.671-0.915-8.563l1.693-0.183c0,0,0.642-0.024-0.047-0.595
						c-0.572-0.47-3.889-3.134-5.105-4.107c-0.274-0.223-0.557-0.22-0.746,0.016c-0.944,1.172-3.811,4.728-4.248,5.272
						c-0.525,0.652,0.266,0.479,0.266,0.479l1.595-0.172l0.657,6.116c0,0-5.294-2.329-5.7-2.509
						c-0.407-0.179-0.715,0.005-0.935,0.436c-0.217,0.432-1.859,4.192-2.029,4.591c-0.209,0.479-0.116,0.834,0.498,1.11
						c1.801,0.817,6.291,2.782,7.788,3.444C143.104,318.412,148.613,314.36,148.45,312.242z"/>
				</g>
				
					<rect x="124.734" y="308.056" transform="matrix(0.4044 -0.9146 0.9146 0.4044 -216.4942 306.5011)" style="opacity:0.7;fill:#FFFFFF;" width="4.706" height="22.841"/>
				
					<rect x="123.802" y="317.494" transform="matrix(0.4044 -0.9146 0.9146 0.4044 -221.7223 307.3468)" style="opacity:0.5;fill:#FFFFFF;" width="2.645" height="12.841"/>
			</g>
		</g>
	</g>
	<g>
		<path style="opacity:0.4;fill:#C1C1C1;" d="M379.456,425.761c-0.003,3.62,23.557,6.564,52.624,6.575
			c29.07,0.008,52.634-2.918,52.638-6.539c0.002-3.619-23.558-6.565-52.627-6.576C403.025,419.211,379.459,422.139,379.456,425.761z
			"/>
		<g>
			<path style="fill:#FFAF99;" d="M456.215,167.963c6.407,1.511,9.938,41.177,12.632,43.818c1.51,1.479,34.81,10.192,35.77,10.333
				c2.812,0.412,0.951,9.918-1.803,9.771c-0.83-0.043-40.654-6.508-43.267-7.963c-2.612-1.455-10.026-21.309-10.407-33.74
				C448.981,184.989,449.023,170.07,456.215,167.963z"/>
			<path style="fill:#FFBE5F;" d="M455.467,167.073c1.719,0.607,3.769,2.03,5.367,6.833c1.599,4.802,4.445,15.653,4.845,18.855
				c0.4,3.201-11.026,2.668-11.026,2.668l-3.358-22.275L455.467,167.073z"/>
			<path style="fill:#102B51;" d="M431.386,291.68c-1.168,11.054-9.903,72.803-12.547,106.314c-0.047,0.606,0.974,1.682,0.926,2.278
				c-0.235,2.971-0.549,6.643-0.677,9.327c-0.255,5.343-17.971,3.725-17.971,0.196c0-3.207,0.114-6.572,0.19-10.061
				c0.013-0.648,1.119-1.082,1.134-1.74c0.701-30.939,1.739-82.124,2.522-116.254c0.132-5.741,0.257-10.999,0.374-15.597
				c0.099-3.976,0.189-7.456,0.272-10.33c0,0,3.225,0.869,8.133,1.751c11.6,2.083,29.07,1.336,39.595-0.084
				c1.926-0.26,4.148-0.655,6.06-1.719c1.663,25.413,1.499,67.067,1.49,78.71c-0.003,6.169-5.377,46.329-6.791,61.753
				c-0.092,0.992,1.698,2.469,1.607,3.445c-0.323,3.468-0.406,6.516-0.935,9.599c-0.672,3.901-16.934,3.92-16.699-0.438
				c0.143-2.716,0.244-6.355,0.359-9.429c0.035-0.863,1.563-2.592,1.592-3.477c0.459-12.574-1.416-51.225-1.551-64.718
				l-5.036-39.745L431.386,291.68z"/>
			<path style="opacity:0.5;fill:#C1C1C1;" d="M410.763,277.245c6.135-6.321,7.766-13.643,7.766-13.643s7.853,0.477,12.603,0.312
				v23.164l2.302,4.385c0,0,1.44-23.508,1.779-27.56c7.484,0.169,14.56-0.47,14.56-0.47s1.675,7.49,7.81,13.811
				c0,0-5.734-9.727-6.04-13.972c0,0,4.896-0.709,8.138-2.652l-0.282-4.859c0,0-14.528,3.787-25.694,3.194
				c-11.165-0.592-27.029-3.517-27.029-3.517l-1.064,2.113l-0.125,3.127c0,0,4.605,2.343,10.471,2.734
				C415.955,263.414,415.71,270.342,410.763,277.245z"/>
			<path style="fill:#FFBE5F;" d="M455.467,167.073c0,0,5.817,58.293,5.63,80.525c-0.007,0.795-0.979,1.546-0.999,2.246
				c-0.087,3.068-0.309,5.164-0.701,5.918c-2.984,5.732-49.328,4.059-53.787,0.052c-0.449-0.359-0.592-2.435-0.505-5.712
				c0.018-0.66-0.914-1.331-0.877-2.014c0.428-8.065,2.963-17.556,2.627-24.768c-0.64-13.838,8.327-56.215,8.327-56.213
				C415.182,167.106,435.162,162.46,455.467,167.073z"/>
			<path style="fill:#F29A86;" d="M451.334,140.919c-0.353,2.637-2.4,6.016-4.355,4.996c-1.578-0.824-2.906-2.194-2.555-4.831
				c0.35-2.638,1.733-3.929,3.83-4.35C450.513,136.281,451.685,138.282,451.334,140.919z"/>
			<path style="fill:#FFAF99;" d="M450.715,137.59c-0.42-0.524-2.682-0.806-3.34,1.174l0.245-1.869c0,0,0.726-0.342,1.594-0.204
				C450.33,136.874,450.715,137.59,450.715,137.59z"/>
			<path style="fill:#F29A86;" d="M417.306,140.896c0.35,2.638,2.393,6.021,4.353,5.003c1.575-0.823,2.903-2.191,2.557-4.829
				c-0.35-2.639-1.729-3.931-3.825-4.356C418.134,136.259,416.957,138.261,417.306,140.896z"/>
			<path style="fill:#FFAF99;" d="M417.928,137.569c0.426-0.523,2.689-0.803,3.341,1.178l-0.245-1.869c0,0-0.722-0.343-1.592-0.204
				C418.313,136.852,417.928,137.569,417.928,137.569z"/>
			<path style="fill:#FFAF99;" d="M425.636,152.109c0.827,2.887-0.221,13.045-0.412,14.66c-0.075,0.598,0.842,7.481,7.009,8.643
				l1.816,9.777l2.349-9.888c5.753-1.466,6.694-8.295,6.445-9.369c0,0-1.925-8.721-0.917-13.461L425.636,152.109z"/>
			<path style="fill:#F29A86;" d="M425.886,153.814c0,0,0.126,1.017,0.017,2.765c0,0,4.713,5.587,8.079,5.59
				c3.371,0.002,7.675-5.154,7.675-5.154s-0.07-3.453,0.085-4.896L425.886,153.814z"/>
			<path style="fill:#FFAF99;" d="M447.62,134.36c-0.003,7.344-5.958,13.29-13.299,13.287c-7.343-0.004-13.289-5.96-13.285-13.303
				c0.005-9.854,5.961-14.591,13.302-14.587C441.679,119.763,447.626,124.712,447.62,134.36z"/>
			<path style="fill:#FFAF99;" d="M447.62,134.36c-0.003,7.11-0.009,13.063-2.717,16.926c-1.64,2.326-5.877,6.325-8.949,7.336
				c-0.764,0.25-2.948,0.123-3.706-0.148c-3.05-1.08-6.954-4.982-8.513-7.201c-2.708-3.867-2.703-9.819-2.699-16.93"/>
			<path style="fill:#0E263F;" d="M442.4,139.167c-0.004,1.208-0.729,2.188-1.629,2.186c-0.899,0-1.627-0.98-1.626-2.188
				c0.002-1.21,0.729-2.19,1.628-2.188C441.673,136.976,442.4,137.956,442.4,139.167z"/>
			<path style="fill:#0E263F;" d="M429.817,139.159c0,1.208-0.732,2.188-1.628,2.188c-0.9-0.001-1.628-0.982-1.628-2.191
				c0.002-1.209,0.73-2.189,1.628-2.189C429.088,136.968,429.817,137.949,429.817,139.159z"/>
			<g>
				<path style="fill:#0E263F;" d="M438.615,133.682c0,0,0.354-0.065,0.883-0.098c0.53-0.033,1.238-0.017,1.943,0.071
					c0.703,0.089,1.398,0.256,1.901,0.434c0.501,0.191,0.824,0.337,0.824,0.337c0.148,0.066,0.213,0.24,0.146,0.388
					c-0.056,0.125-0.19,0.191-0.318,0.167l-0.03-0.005c0,0-0.335-0.061-0.82-0.178c-0.238-0.073-0.536-0.088-0.84-0.162
					c-0.304-0.075-0.641-0.091-0.97-0.149c-0.662-0.094-1.332-0.144-1.836-0.175c-0.505-0.039-0.838-0.043-0.838-0.043
					c-0.163-0.001-0.293-0.135-0.292-0.298C438.37,133.826,438.478,133.706,438.615,133.682z"/>
			</g>
			<g>
				<path style="fill:#0E263F;" d="M429.799,134.261c0,0-0.333,0.004-0.839,0.042c-0.503,0.031-1.174,0.081-1.836,0.173
					c-0.329,0.058-0.666,0.074-0.97,0.148c-0.303,0.073-0.601,0.088-0.84,0.161c-0.484,0.117-0.82,0.177-0.82,0.177l-0.029,0.005
					c-0.159,0.029-0.312-0.077-0.34-0.237c-0.024-0.135,0.048-0.265,0.168-0.318c0,0,0.322-0.145,0.823-0.336
					c0.504-0.177,1.199-0.343,1.902-0.431c0.704-0.087,1.413-0.103,1.942-0.069c0.528,0.033,0.883,0.098,0.883,0.098
					c0.161,0.027,0.27,0.18,0.242,0.34C430.063,134.156,429.936,134.257,429.799,134.261z"/>
			</g>
			<path style="fill:#F29A86;" d="M431.993,146.204c0.851-0.401,3.919-0.431,4.647,0.003c0.721,0.436-1.539,1.011-2.327,1.011
				C433.526,147.219,431.313,146.577,431.993,146.204z"/>
			<path style="fill:#FFFFFF;" d="M428.883,149.226c2.73,1.1,7.162,1.598,9.838,1.663c0.331,0.006,0.445,0.079,0.002,0.197
				c-0.783,0.211-3.331,2.498-5.301,2.23c-1.973-0.268-4.077-3.447-4.671-3.939C428.5,149.173,428.631,149.128,428.883,149.226z"/>
			<path style="fill:#FFAB24;" d="M442.4,163.6l4.412,2.102l-6.683,15.837l-3.733-6.238
				C436.397,175.301,441.741,170.731,442.4,163.6z"/>
			<polygon style="fill:#FFAB24;" points="446.813,165.702 447.62,165.785 440.064,183.564 436.119,176.065 436.397,175.301 
				440.13,181.539 			"/>
			<path style="fill:#FFAB24;" d="M425.539,163.6l-4.781,2.894l7.009,16.215l4.466-7.297
				C432.232,175.412,426.38,170.865,425.539,163.6z"/>
			<polygon style="fill:#FFAB24;" points="421.08,166.873 420.272,166.955 427.831,184.735 432.488,176.128 432.232,175.412 
				427.767,182.709 			"/>
			<path style="fill:#FFAB24;" d="M458.058,195.463l-1.745-6.971l0.522,5.737c0,0,3.383,30.787,3.678,35.128
				C460.512,229.357,458.698,199.748,458.058,195.463z"/>
			<path style="fill:#FFAB24;" d="M409.527,253.576c0,0,35.061,2.6,51.368-5.307l-0.798,1.575
				C460.098,249.844,445.001,259.353,409.527,253.576z"/>
			<path style="opacity:0.5;fill:#C7DAEA;" d="M440.02,395.926c1.382,2.91,13.834,2.809,14.076,0.299c0,0,1.646,3.008,1.607,3.445
				c-0.039,0.438-0.659,8.1-0.659,8.1s-14.87,3.527-15.638,2.99c-0.766-0.537-1.624-0.807-1.544-2.723
				c0.082-1.916,0.565-7.65,0.565-8.635C438.428,398.418,440.006,396.354,440.02,395.926z"/>
			<path style="fill:#102B51;" d="M437.879,411.741c-0.013,1.705,0,0,0.092,1.185c0.061,0.818-0.895,6.105-1.492,9.324
				c-0.273,1.456,0.214,2.537,1.372,2.617c5.343,0.381,19.623,1.443,22.962,1.502c4.057,0.076,11.694-0.059,12.442-1.631
				c1.113-2.352,0.535-6.765-7.523-9.391c-4.033-1.311-8.719-5.852-8.737-4.974c0,0-0.928-7.614-4.049-7.044
				c-3.492,0.637-4.38,5.892-8.847,5.415C439.112,408.215,437.905,408.766,437.879,411.741z"/>
			<path style="fill:#EDEDED;stroke:#EDEDED;stroke-miterlimit:10;" d="M457.044,422.998c-2.096,1.255-4.822,1.721-8.13-1.445
				c-3.311-3.167-12.067-1.304-11.884-2.332l0,0c-0.19,1.078-0.385,2.133-0.552,3.029c-0.273,1.456,0.214,2.537,1.372,2.617
				c5.343,0.381,19.623,1.443,22.962,1.502c4.057,0.076,11.694-0.059,12.442-1.631c0.463-0.982,0.625-2.326,0.078-3.743
				C473.476,422.716,459.06,421.787,457.044,422.998z"/>
			<path style="opacity:0.5;fill:#C7DAEA;" d="M402.389,398.23c-0.1,2.408,16.268,3.098,16.477,0c0,0,0.935,1.599,0.899,2.042
				c-0.036,0.444-0.52,7.706-0.677,9.327c-0.156,1.621-1.308,2.313-3.607,3.078c-2.302,0.767-10.751-0.511-12.393-0.984
				c-1.643-0.473-1.941-1.161-1.946-2.697c-0.007-1.535,0.103-8.094,0.166-9.262C401.369,398.567,402.319,399.199,402.389,398.23z"
				/>
			<path style="fill:#102B51;" d="M416.144,409.386c0.151,5.117,4.82,6.885,4.82,10.063c0,0.753,0.145,3.705-0.294,4.311
				c-1.317,1.804-4.455,2.024-7.039,2.017c-3.717-0.007-7.539-0.276-10.405-1.407c-4.797-1.888,0.05-10.888,0.315-15.173
				C403.766,405.588,415.996,404.268,416.144,409.386z"/>
			<path style="fill:#EDEDED;stroke:#EDEDED;stroke-miterlimit:10;" d="M401.142,419.99c0,0,4.191,2.244,11.73,2.244
				c7.986,0,8.092-2.785,8.092-2.785v6.131c0,0.96-3.609,2.171-9.317,2.171c-4.149,0-7.136-0.94-8.939-1.901
				c-1.566-0.838-1.566-2.065-1.566-2.065V419.99z"/>
			<g>
				
					<rect x="463.948" y="190.745" transform="matrix(0.3758 -0.9267 0.9267 0.3758 114.3483 554.6246)" style="fill:#C7DAEA;" width="9.883" height="3.365"/>
				<path style="fill:#C7DAEA;" d="M460.495,225.489c-2.135,2.72-9.169-0.327-8.609-3.492c1.521-8.589,8.274-17.902,9.036-19.773
					c0.76-1.872,0.834-6.717,3.61-9.268c2.865-2.629,6.762-1.058,7.113,2.884c0.354,3.965-2.728,7.145-3.457,8.886
					S465.758,218.779,460.495,225.489z"/>
				<path style="fill:#FFA300;" d="M472.306,188.481c-0.135,0.331-0.941,0.315-1.803-0.034c-0.862-0.349-1.45-0.9-1.316-1.231
					c0.134-0.331,0.941-0.317,1.802,0.033C471.85,187.599,472.44,188.15,472.306,188.481z"/>
				<g style="opacity:0.5;">
					<path style="fill:#80A4DD;" d="M466.101,213.037C466.101,213.037,466.101,213.037,466.101,213.037
						c1.135-4.043,1.73-7.455,2.088-8.31c0.38-0.908,1.396-2.21,2.235-3.807c-0.464,0.908-8.717-1.851-8.365-3.39
						c-0.521,1.877-0.734,3.703-1.137,4.695c-0.362,0.887-2.072,3.452-3.932,6.818C455.995,210.818,465.626,214.649,466.101,213.037
						z"/>
				</g>
			</g>
			<g>
				
					<rect x="515.637" y="197.678" transform="matrix(0.9078 -0.4193 0.4193 0.9078 -35.6193 236.6531)" style="fill:#C7DAEA;" width="9.882" height="3.365"/>
				<path style="fill:#C7DAEA;" d="M491.854,217.756c-3.417,0.527-6.471-6.505-3.898-8.433c6.981-5.23,18.276-7.412,20.11-8.257
					c1.833-0.847,5.2-4.333,8.972-4.296c3.886,0.039,5.658,3.849,3.218,6.966c-2.449,3.136-6.873,3.351-8.596,4.123
					C509.936,208.632,500.281,216.457,491.854,217.756z"/>
				<path style="fill:#FFA300;" d="M525.769,198.814c-0.323,0.15-0.9-0.413-1.292-1.256c-0.389-0.845-0.443-1.648-0.12-1.798
					c0.324-0.15,0.904,0.411,1.293,1.255C526.041,197.86,526.095,198.664,525.769,198.814z"/>
				<g style="opacity:0.5;">
					<path style="fill:#80A4DD;" d="M504.456,212.498c0,0,0,0,0.002-0.001c3.591-2.175,6.355-4.257,7.202-4.638
						c0.899-0.403,2.53-0.658,4.235-1.249c-0.962,0.346-5.098-7.309-3.79-8.192c-1.663,1.014-3.067,2.2-4.039,2.649
						c-0.87,0.401-3.872,1.104-7.53,2.29C498.597,203.971,503.009,213.351,504.456,212.498z"/>
				</g>
			</g>
			<g>
				
					<rect x="497.905" y="193.192" transform="matrix(0.424 -0.9057 0.9057 0.424 113.1614 567.6699)" style="fill:#ADC6D8;" width="9.883" height="3.366"/>
				<path style="fill:#ADC6D8;" d="M492.733,227.451c-2.273,2.604-9.14-0.806-8.415-3.937c1.969-8.498,9.201-17.444,10.06-19.273
					c0.855-1.829,1.184-6.664,4.091-9.065c2.999-2.476,6.809-0.703,6.95,3.252c0.147,3.977-3.097,6.991-3.916,8.692
					C500.683,208.821,498.342,221.027,492.733,227.451z"/>
				<path style="fill:#C7DAEA;" d="M506.466,191.111c-0.152,0.325-0.957,0.266-1.799-0.127c-0.842-0.394-1.4-0.975-1.251-1.298
					c0.151-0.324,0.956-0.268,1.798,0.127C506.058,190.208,506.616,190.788,506.466,191.111z"/>
				<g style="opacity:0.5;">
					<path style="fill:#80A4DD;" d="M498.982,215.31c0,0,0,0,0.002-0.002c1.344-3.977,2.117-7.351,2.518-8.188
						c0.427-0.887,1.51-2.134,2.433-3.685c-0.512,0.883-8.607-2.305-8.177-3.823c-0.618,1.847-0.929,3.659-1.381,4.628
						c-0.407,0.867-2.251,3.338-4.284,6.603C489.008,212.564,498.426,216.895,498.982,215.31z"/>
				</g>
			</g>
			<g>
				
					<rect x="483.139" y="188.202" transform="matrix(0.973 -0.2306 0.2306 0.973 -31.4728 117.0087)" style="fill:#C7DAEA;" width="3.365" height="9.883"/>
				<path style="fill:#C7DAEA;" d="M497.134,224.954c-0.163,3.453-7.662,5.046-9.039,2.143c-3.736-7.882-3.627-19.386-4.092-21.352
					c-0.465-1.964-3.212-5.958-2.426-9.645c0.813-3.803,4.898-4.78,7.468-1.769c2.585,3.025,1.917,7.402,2.331,9.244
					C491.79,205.416,497.538,216.435,497.134,224.954z"/>
				<path style="fill:#FFA300;" d="M485.319,187.946c0.082,0.348-0.585,0.802-1.488,1.017c-0.905,0.214-1.704,0.106-1.786-0.24
					c-0.083-0.348,0.582-0.804,1.486-1.018C484.438,187.491,485.236,187.599,485.319,187.946z"/>
				<g style="opacity:0.5;">
					<path style="fill:#80A4DD;" d="M494.488,211.557c0,0,0,0,0.001-0.002c-1.419-3.951-2.908-7.076-3.113-7.981
						c-0.217-0.96-0.143-2.609-0.383-4.398c0.147,1.011-8.177,3.543-8.782,2.084c0.662,1.831,1.545,3.445,1.792,4.485
						c0.22,0.933,0.312,4.014,0.747,7.835C484.967,215.604,495.038,213.145,494.488,211.557z"/>
				</g>
			</g>
			<g>
				
					<rect x="433.94" y="189.122" transform="matrix(0.869 -0.4949 0.4949 0.869 -38.9547 241.0091)" style="fill:#ADC6D8;" width="3.365" height="9.883"/>
				<path style="fill:#ADC6D8;" d="M456.382,221.127c0.815,3.359-5.933,6.997-8.071,4.599c-5.801-6.515-8.931-17.585-9.93-19.34
					c-0.998-1.755-4.758-4.814-5.039-8.575c-0.291-3.877,3.355-5.964,6.668-3.797c3.331,2.176,3.92,6.565,4.836,8.216
					C445.762,203.88,454.376,212.839,456.382,221.127z"/>
				<path style="fill:#C7DAEA;" d="M434.64,188.936c0.177,0.311-0.335,0.935-1.143,1.395c-0.808,0.459-1.605,0.581-1.78,0.272
					c-0.179-0.311,0.334-0.935,1.141-1.395C433.666,188.747,434.461,188.626,434.64,188.936z"/>
				<g style="opacity:0.5;">
					<path style="fill:#80A4DD;" d="M450.078,209.015c0,0,0,0,0-0.002c-2.473-3.393-4.782-5.973-5.232-6.783
						c-0.478-0.86-0.869-2.464-1.605-4.113c0.427,0.929-6.849,5.699-7.842,4.47c1.151,1.571,2.453,2.871,2.982,3.8
						c0.473,0.833,1.427,3.765,2.92,7.31C442.078,215.576,451.051,210.386,450.078,209.015z"/>
				</g>
			</g>
			<g>
				
					<rect x="448.074" y="189.026" transform="matrix(0.9731 -0.2304 0.2304 0.9731 -32.5927 108.8592)" style="fill:#C7DAEA;" width="3.366" height="9.883"/>
				<path style="fill:#C7DAEA;" d="M462.068,225.777c-0.162,3.453-7.66,5.046-9.039,2.143c-3.735-7.882-3.626-19.386-4.09-21.352
					c-0.466-1.965-3.213-5.959-2.426-9.646c0.811-3.803,4.897-4.78,7.468-1.769c2.584,3.025,1.915,7.403,2.33,9.244
					C456.727,206.24,462.474,217.259,462.068,225.777z"/>
				<path style="fill:#C7DAEA;" d="M450.255,188.77c0.083,0.348-0.585,0.803-1.489,1.018c-0.905,0.214-1.703,0.106-1.786-0.24
					c-0.082-0.348,0.583-0.804,1.488-1.018C449.373,188.315,450.172,188.423,450.255,188.77z"/>
				<g style="opacity:0.5;">
					<path style="fill:#80A4DD;" d="M459.424,212.381c0,0,0,0,0.001-0.003c-1.419-3.95-2.909-7.076-3.113-7.98
						c-0.217-0.961-0.142-2.61-0.383-4.398c0.147,1.01-8.178,3.542-8.782,2.083c0.662,1.832,1.545,3.445,1.793,4.486
						c0.219,0.932,0.309,4.013,0.745,7.835C449.901,216.428,459.973,213.969,459.424,212.381z"/>
				</g>
			</g>
			<g>
				
					<rect x="467.883" y="190.717" transform="matrix(0.7509 -0.6604 0.6604 0.7509 -12.2433 358.859)" style="fill:#ADC6D8;" width="3.365" height="9.883"/>
				<path style="fill:#ADC6D8;" d="M495.372,217.962c1.478,3.125-4.395,8.054-6.975,6.137c-6.999-5.205-12.304-15.414-13.638-16.931
					c-1.334-1.516-5.634-3.752-6.671-7.378c-1.069-3.739,2.08-6.52,5.763-5.068c3.703,1.457,5.168,5.637,6.398,7.067
					C481.481,203.221,491.729,210.252,495.372,217.962z"/>
				<path style="fill:#C7DAEA;" d="M467.565,190.836c0.236,0.268-0.139,0.983-0.838,1.597c-0.697,0.614-1.453,0.894-1.689,0.627
					c-0.237-0.268,0.137-0.983,0.835-1.597C466.573,190.849,467.328,190.569,467.565,190.836z"/>
				<g style="opacity:0.5;">
					<path style="fill:#80A4DD;" d="M486.746,207.377c0,0,0,0-0.001-0.003c-3.107-2.821-5.89-4.881-6.495-5.584
						c-0.642-0.746-1.352-2.237-2.403-3.703c0.604,0.822-5.557,6.966-6.775,5.963c1.444,1.306,2.981,2.315,3.689,3.119
						c0.632,0.719,2.158,3.397,4.338,6.567C480.239,215.421,487.977,208.521,486.746,207.377z"/>
				</g>
			</g>
			<rect x="458.193" y="204.27" style="fill:#DCDEE2;" width="65.917" height="56.313"/>
			<rect x="435.212" y="204.27" style="fill:#EDEDED;" width="41.275" height="56.313"/>
			<path style="fill:#FFAF99;" d="M410.178,179.972c6.41,1.512,15.937,46.741,18.631,49.382c1.511,1.48,35.91,5.037,36.869,5.177
				c0.638,0.094,3.353,0.078,4.154-0.182c0.584,2.051-0.465,9.408-2.665,11.14c-1.726-0.478-3.59-0.566-4.008-0.587
				c-0.831-0.044-41.036-1.95-43.648-3.406c-2.612-1.455-16.024-26.873-16.405-39.303
				C402.945,196.998,402.986,182.079,410.178,179.972z"/>
			<path style="fill:#FFAF99;" d="M469.832,234.349c2.786-0.175,4.028-3.263,4.209-6.161c0.166-2.68,3.841-2.25,3.032,3.516
				c-0.472,3.373-2.128,2.862,0.641,2.862c5.073,0,7.108-2.455,8.407,0.185c0.603,1.227-1.801,10.415-5.061,12.198
				c-2.314,1.266-7.247-0.833-13.383-1.362c-4.496-0.386,0-5.946,0-5.946L469.832,234.349z"/>
			<path style="fill:#F29A86;" d="M485.91,237.386c-1.791,0.704-5.622,0.831-5.622,0.831"/>
			<path style="fill:#F29A86;" d="M484.902,240.899c0,0-2.689,1.059-6.031,0.648"/>
			<path style="fill:#F29A86;" d="M483.347,244.466c-1.293,0.675-4.484,0.626-5.175,0.534"/>
			<polygon style="fill:#FFAB24;" points="420.4,202.615 418.536,185.189 423.834,201.566 422.767,204.27 427.523,226.604 			"/>
			<path style="fill:#FFBE5F;" d="M415.182,167.106c-4.334,1.108-10.906,5.195-12.822,12.089
				c-1.917,6.895-1.242,23.438-0.533,28.372c0.342,2.38,20.581-1.505,19.442-7.642C420.131,193.79,415.182,167.106,415.182,167.106z
				"/>
			<path style="fill:#FFFFFF;" d="M510.746,242.595c0.286-0.145,2.639-1.518,2.887-1.666c0.299-0.175,0.389-0.401,0.168-0.79
				c-0.647-1.143-2.283-3.954-2.826-4.895c-0.685-1.184-5.221-1.167-5.966,0.033c-0.596,0.963-2.237,3.847-2.86,4.948l-0.979-0.566
				c0,0-0.354-0.237-0.207,0.337c0.122,0.477,0.856,3.202,1.127,4.201c0.06,0.228,0.214,0.336,0.407,0.283
				c0.965-0.259,3.892-1.042,4.341-1.163c0.537-0.144,0.044-0.36,0.044-0.36l-0.922-0.532l2.042-3.538c0,0,1.926,3.321,2.074,3.578
				C510.223,242.719,510.46,242.741,510.746,242.595z"/>
			<path style="fill:#FFFFFF;" d="M505.478,249.684c-0.395-0.394-0.336,0.141-0.336,0.141v1.064h-4.083c0,0,1.913-3.329,2.061-3.584
				c0.147-0.256,0.048-0.473-0.222-0.648c-0.271-0.175-2.636-1.524-2.887-1.666c-0.302-0.172-0.542-0.135-0.769,0.249
				c-0.665,1.131-2.281,3.955-2.826,4.896c-0.685,1.184,1.601,5.104,3.011,5.149c1.131,0.035,4.448,0.013,5.714,0.005v1.13
				c0,0-0.026,0.426,0.398,0.012c0.351-0.345,2.344-2.345,3.071-3.077c0.167-0.166,0.185-0.352,0.044-0.494
				C507.948,252.155,505.806,250.011,505.478,249.684z"/>
			<path style="fill:#FFFFFF;" d="M519.534,250.451c-0.535-0.999-2.214-3.862-2.855-4.953l0.98-0.564c0,0,0.382-0.188-0.188-0.348
				c-0.474-0.133-3.202-0.859-4.202-1.124c-0.228-0.062-0.398,0.017-0.448,0.21c-0.259,0.966-1.045,3.893-1.163,4.342
				c-0.146,0.537,0.288,0.219,0.288,0.219l0.923-0.533l2.042,3.538c0,0-3.84,0.008-4.135,0.008c-0.295,0-0.434,0.193-0.45,0.515
				c-0.015,0.321-0.002,3.044,0,3.333c0.003,0.347,0.155,0.536,0.601,0.54c1.312,0.012,4.567,0,5.652,0
				C517.944,255.632,520.202,251.694,519.534,250.451z"/>
			<path style="fill:#0E263F;" d="M421.124,140.866c0.383,1.192,0.953,0.823,0.864-0.2c-0.089-1.023-0.176-7.16,0.802-9.561
				c0.977-2.401,1.538-6.648,2.867-7.359c1.328-0.711,2.323-1.661,1.45-2.098c-0.873-0.438-4.875,1.164-6.342,5.433
				C419.119,131.87,420.682,139.487,421.124,140.866z"/>
			<path style="fill:#0E263F;" d="M447.664,140.866c-0.383,1.192-0.953,0.823-0.864-0.2c0.089-1.023,0.176-7.16-0.802-9.561
				c-0.976-2.401-1.538-6.648-2.867-7.359c-1.328-0.711-2.323-1.661-1.45-2.098c0.872-0.438,4.875,1.164,6.343,5.433
				C449.67,131.87,448.105,139.487,447.664,140.866z"/>
			<path style="fill:#0E263F;" d="M428.758,121.048c1.465,0.89,9.985,0.897,11.208,0.286c1.224-0.611-4.313-2.595-5.848-2.595
				C432.583,118.739,427.332,120.184,428.758,121.048z"/>
		</g>
	</g>
	<g>
		<path style="opacity:0.4;fill:#C1C1C1;" d="M517.081,425.8c-0.007,3.62,42.69,6.552,95.37,6.548
			c52.689-0.006,95.395-2.943,95.405-6.565c0.005-3.618-42.691-6.552-95.379-6.55C559.801,419.237,517.088,422.178,517.081,425.8z"
			/>
		<g>
			<path style="fill:#4FC9B8;" d="M564.371,249.719c1.869,11.593,1.132,22.884,1.132,22.884s21.762,20.5,28.225,59.374
				c6.465,38.882-9.06,73.111-13.582,80.032c0,0,5.413,4.368,6.75,8.477c1.339,4.108-13.782,5.988-16.655,4.677
				c0,0-9.477,6.214-24.516-0.592c0,0-12.273,2.407-18.77-2.83c-0.586-1.464,0.801-4.389,7.266-8.495
				c0,0-6.723-14.384-10.054-52.149c-3.333-37.766,22.175-78.128,34.435-87.068c0,0-0.119-6.748-0.694-8.121
				c-1.858-4.429-14.744-8.472-16.121-15.574c-0.896-4.633,4.736-5.397,8.511-3.319c1.209,0.665,2.6,1.514,4.35-3.63
				c1.027-3.02,0.184,7.384,3.886,7.688C561.538,251.332,563.386,243.598,564.371,249.719z"/>
			<path style="opacity:0.4;fill:#C1C1C1;" d="M534.221,413.245c0.967,2.325,5.651,5.143,10.858,5.012
				c0.954-0.023,0.392,4.387,1.358,4.145c0,0,2.641-3.982,4.485-3.532c2.542,0.616,6.479,1.038,10.858-0.438
				c0.931-0.313,8.057,5.241,9.018,4.739c0,0-3.122-5.698,0.347-6.223c3.467-0.524,7.349-1.827,9-4.939
				c0,0,17.227-28.178,15.134-63.684c0,0-7.105,34.163-15.453,44.796c-8.347,10.631-11.923-0.698-13.969-0.873
				c-2.044-0.174-15.673,12.548-21.293,13.072c-5.622,0.522-19.119-16.707-20.634-47.918
				C523.931,357.402,525.581,390.318,534.221,413.245z"/>
			<path style="opacity:0.4;fill:#C1C1C1;" d="M550.387,281.499c0,0,6.525-5.918,8.146-6.003c1.617-0.084-1.873,11.327-1.277,11.412
				c0.597,0.088,3.238-11.157,3.919-11.412c0.681-0.256,2.894,5.707,4.344,5.451c1.447-0.255-0.574-6.189-0.267-7.132
				c0.308-0.943,5.612,3.384,9.241,8.872c0,0-4.976-6.413-8.509-10.295c-3.533-3.881-8.432,1.727-8.432,1.727
				S554.048,276.709,550.387,281.499z"/>
			<path style="opacity:0.4;fill:#C1C1C1;" d="M558.021,266.212c-0.766-4.003-11.522-8.167-14.278-12.304
				c0,0,5.112,3.615,10.291,6.342c5.18,2.727-1.976-8.177-1.378-9.199c0.597-1.022,4.685,8.943,6.304,9.453
				c1.617,0.513,0.938-6.472,2.128-7.239c1.193-0.766,0.09,7.177,1.295,7.47c1.206,0.293,2.974-4.307,2.48-7.738
				c0,0,0.824,6.998,0.824,9.724L558.021,266.212z"/>
			<path style="fill:#0E263F;" d="M649.967,133.806c0,0-9.385-2.511-13.403,1.658c-5.161,5.352-1.63,16.923,1.893,21.448
				c3.525,4.524,8.747,4.236,8.747,4.236L649.967,133.806z"/>
			<path style="fill:#DCDEE2;" d="M666.562,400.252c0,0-1.089,1.918,0.281,7.543c1.373,5.626-14.27,6.549-13.957,2.757
				c0.367-4.425-0.01-10.714-0.136-12.159C652.627,397.018,666.562,400.252,666.562,400.252z"/>
			<path style="fill:#DCDEE2;" d="M608.351,398.733c0,0-2.81,6.493-3.466,10.745c-0.858,5.567-8.942,2.882-9.288,0.106
				c-0.174-1.394,0.377-9.814,2.107-14.054C599.437,391.29,608.351,398.733,608.351,398.733z"/>
			<path style="fill:#102B51;" d="M647.406,295.634c-0.35,2.826-8.84,28.939-18.116,53.508
				c-7.612,20.161-16.09,39.185-18.174,44.265c-0.224,0.545,0.087,2.08-0.149,2.551c-1.137,2.281-1.924,3.836-2.185,4.333
				c-1.605,3.07-12.67-0.316-12.116-3.808c0.078-0.485,0.722-2.561,1.213-4.328c0.146-0.525,1.115-1.199,1.291-1.818
				c3.434-12.121,4.012-38.691,13.331-53.832c3.172-29.032,7.48-56.899,12.449-74.215c0,0,1.762,0.561,7.625,1.841
				c16.009,3.494,30.66,1.184,32.232,1.024c2.108-0.214,4.288-0.483,6.529-0.82c3.308,29.503,3.036,58.762,2.359,71.621
				c-0.308,5.823-4.204,38.217-6.685,55.186c-0.092,0.627,0.778,1.151,0.694,1.745c-0.35,2.442-0.522,5.694-0.723,7.355
				c-0.142,2.884-15.331,2.212-14.932-0.298c0.329-2.056-0.42-4.352-0.19-6.44c0.051-0.461,1.308-1.901,1.353-2.362
				c1.761-17.403-1.341-37.666,0.689-51.608L647.406,295.634z"/>
			<path style="fill:#FFAF99;" d="M568.854,254.414c-4.153,4.496-5.052,7.663-9.326,10.01c-0.788,0.434-5.148,2.49-3.083,8.471
				c0.169,0.492,0.795,1.408,1.743,1.322l4.622-1.257c0,0-1.438-2.349,2.807-3.07c2.786-0.477,1.378-2.821,2.84-3.662
				c1.935-1.118,7.62-6.512,7.62-6.512L568.854,254.414z"/>
			<path style="fill:#FFAF99;" d="M569.54,265.474c-1.373,3.403-3.355,4.392-3.627,5.695c-0.271,1.304-0.422,2.388-0.857,2.998
				c-0.299,0.426-0.08,1.651-0.008,2.603c0.034,0.414-0.313,0.66-0.742,0.471c-0.517-0.231-1.107-0.685-1.202-1.546
				c-0.169-1.579-0.509-4.733-0.509-4.733l2.782-3.889l2.1-1.615L569.54,265.474z"/>
			<path style="fill:#F29A86;" d="M566.326,257.44c0.73,1.792,2.117,4.336,4.959,6.608l2.534-2.242c0,0-2.089-3.424-2.215-3.832
				c-0.127-0.409-4.869-1.064-4.869-1.064L566.326,257.44z"/>
			<path style="fill:#C7DAEA;" d="M654.434,173.769l-11.063,0.131l-5.626,1.182l-11.003,3.813l-1.713,30.364
				c-0.924,15.376-3.241,29.255-5.672,44.62c-0.099,0.628,3.373,3.832,3.261,4.455c-0.405,2.27-0.9,4.515-1.502,6.726
				c-0.806,2.972,52.478,3.203,51.944-0.136c-0.345-2.155-0.628-4.506-0.86-6.978c-0.084-0.894,2.127-3.459,2.057-4.381
				c-0.714-9.347-3.042-18.276-2.745-26.241c0.48-12.865,0.727-25.74,1.137-38.607c0.018-0.575-0.499-8.773-0.695-8.401
				l-11.231-4.615L654.434,173.769z"/>
			<path style="fill:#EDEDED;" d="M671.83,216.237l0.647-12.413l-1.751-9.83c0,0,0.854,31.794,0.518,41.743L671.83,216.237z"/>
			<path style="fill:#FFAF99;" d="M679.456,266.152c-3.713,2.814-3.026,6.959-3.632,9.66c-0.411,1.836-1.623,3.85,0,3.361
				c2.914-0.875,2.823-5.593,2.823-5.593s0.893,0.521,0.951,1.726c0.103,2.081-2.681,6.158-3.124,8.189
				c-0.469,2.162,4.19,0.646,6.153-1.646c3.61-3.905,4.168-11.205,4.211-11.88c0.094-1.46,0.425-5.587,0.425-5.587l-7.726-6.105
				C679.538,258.277,680.038,265.68,679.456,266.152z"/>
			<path style="fill:#C7DAEA;" d="M668.761,199.398l2.586-19.386c3.828,1.761,12.901,8.623,15.917,25.542
				c3.859,21.648,4.486,39.396,4.108,50.098c-0.02,0.584-2.409,1.867-2.433,2.399c-0.189,4.377-0.445,6.962-0.476,7.194
				c-0.288,2.291-9.398,1.086-9.323-1.153l-0.423-6.462l-2.478-2.082l-0.523-27.657L668.761,199.398z"/>
			<path style="fill:#C7DAEA;" d="M626.742,178.894c-4.205,2.354-28.081,32.131-30.316,33.823c4.535,3.255,1.231,14.953,9.538,12.16
				c6.506-6.676,22.548-22.14,22.548-22.14L626.742,178.894z"/>
			<polygon style="opacity:0.5;fill:#C1C1C1;" points="625.203,205.661 630.199,200.775 621.268,241.76 623.846,222.15 			"/>
			<path style="fill:#FFAF99;" d="M644.549,155.413c0.362,6.055-0.078,16.294-1.191,17.174c-1.113,0.879-1.445,1.395-3.662,2.085
				c0,0-0.053,11.519,11.332,11.896c11.387,0.378,8.817-10.076,8.807-11.141l-3.241-1.836c0,0,0.555-2.918,1.013-5.522
				c0.713-4.062-1.054-12.029-1.054-12.029L644.549,155.413z"/>
			<path style="fill:#C7DAEA;" d="M596.426,212.717c-4.868,4.768-21.505,25.308-26.886,33.301c-0.448,0.665,0.648,3.18,0.24,3.782
				c-1.371,2.015-2.505,3.649-3.242,4.671c-2.19,2.58,7.168,9.181,9.176,6.952c0.649-0.705,1.815-2.155,3.302-4.092
				c0.329-0.429,3.143-0.667,3.502-1.14c7.273-9.6,20.7-28.666,23.446-31.314c3.492-3.368-0.94-11.594-0.94-11.594L596.426,212.717z
				"/>
			<g style="opacity:0.5;">
				<path style="fill:#C1C1C1;" d="M572.621,254.658c-3.316-3.18-2.841-4.858-2.841-4.858c-1.371,2.015-2.505,3.649-3.242,4.671
					c-2.19,2.58,7.168,9.181,9.176,6.952c0.608-0.659,1.949-2.339,3.302-4.092C576.817,257.345,574.628,256.582,572.621,254.658z"/>
			</g>
			<path style="opacity:0.5;fill:#C1C1C1;" d="M678.718,257.63c1.33,0.944,8.776,1.776,10.222,0.421c0,0-0.252,6.091-0.476,7.194
				c-0.221,1.105-2.774,1.337-5.022,1.09c-2.245-0.245-4.619-0.764-4.725-2.386C678.611,262.328,678.718,257.63,678.718,257.63z"/>
			<path style="fill:#F29A86;" d="M679.456,266.152c0,0,7.619,1.362,7.407,3.456l0.256-3.397c0,0-4.877,0.813-7.451-0.858
				L679.456,266.152z"/>
			<path style="opacity:0.5;fill:#C1C1C1;" d="M622.618,258.333c1.333,1.702,48.421,1.53,49.626-0.703
				c1.204-2.233-0.044,0.315-0.044,0.315s0.604,5.289,0.86,6.978c0.256,1.688-11.785,2.1-11.785,2.1s-23.078,1.309-34.894-0.504
				c-3.071-0.473-5.507-0.505-5.209-1.655C621.469,263.712,622.618,258.333,622.618,258.333z"/>
			<polygon style="fill:#EDEDED;" points="671.139,209.14 671.602,202.11 675.717,227.891 			"/>
			<path style="fill:#F48C8C;" d="M652.273,412.769c-0.013,1.524,0,0,0.08,1.06c0.056,0.73-0.798,5.456-1.331,8.332
				c-0.245,1.301,0.189,2.266,1.226,2.338c4.774,0.342,17.534,1.289,20.519,1.343c3.626,0.068,10.45-0.054,11.119-1.457
				c0.994-2.101,0.477-6.046-6.724-8.392c-3.603-1.173-7.79-5.229-7.807-4.445c0,0-0.83-6.805-3.618-6.295
				c-3.121,0.57-3.913,5.266-7.905,4.841C653.375,409.617,652.294,410.11,652.273,412.769z"/>
			<path style="fill:#153556;stroke:#153556;stroke-linecap:round;stroke-linejoin:round;stroke-miterlimit:10;" d="
				M669.398,422.828c-1.872,1.121-4.309,1.539-7.264-1.29c-2.959-2.831-10.786-1.167-10.62-2.085l0,0
				c-0.168,0.963-0.345,1.905-0.492,2.707c-0.245,1.301,0.189,2.266,1.226,2.338c4.774,0.342,17.534,1.289,20.519,1.343
				c3.626,0.068,10.45-0.054,11.119-1.457c0.415-0.878,0.559-2.078,0.069-3.346C684.081,422.576,671.2,421.747,669.398,422.828z"/>
			<path style="fill:#F48C8C;" d="M605.69,410.097c0.135,4.572,4.307,6.152,4.307,8.991c0,0.673,0.13,3.312-0.264,3.853
				c-1.176,1.612-3.98,1.809-6.288,1.803c-3.322-0.007-6.737-0.249-9.299-1.258c-4.287-1.686,0.045-9.73,0.282-13.558
				C594.628,406.702,605.556,405.522,605.69,410.097z"/>
			<path style="fill:#153556;stroke:#153556;stroke-linecap:round;stroke-linejoin:round;stroke-miterlimit:10;" d="
				M592.282,419.571c0,0,3.746,2.006,10.484,2.006c7.136,0,7.229-2.489,7.229-2.489v5.48c0,0.859-3.225,1.94-8.325,1.94
				c-3.708,0-6.377-0.839-7.987-1.699c-1.401-0.748-1.401-1.846-1.401-1.846V419.571z"/>
			<path style="fill:#FFFFFF;" d="M640.79,174.287c-0.333,2.904,0.78,10.374,10.558,10.692c9.774,0.318,7.449-10.139,7.449-10.139
				s1.899,0.849,1.925,0.861c0.907,3.193-0.118,7.319-0.873,8.562c-3.179,5.246-10.546,5.44-14.922,2.575
				c-0.872-0.571-6.695-4.561-6.457-11.908L640.79,174.287z"/>
			<path style="fill:#F29A86;" d="M657.606,168.069c-2.38,0.018-9.126-6.24-9.591-7.757c-0.467-1.517-1.613-4.571-1.613-4.571
				s-0.36,7.178,2.563,10.789c3.14,3.888,8.405,3.011,8.405,3.011S657.523,168.91,657.606,168.069z"/>
			<path style="fill:#FFAF99;" d="M640.281,146.821c0.441,7.408,6.805,13.055,14.212,12.611c7.407-0.444,13.193-7.535,12.754-14.943
				c-0.094-1.597-0.123-4.197-0.721-5.586c-3.623-8.437-16.969-10-23.852-2.151C640.271,139.493,640.084,143.485,640.281,146.821z"
				/>
			<path style="fill:#FFAF99;" d="M667.042,147.535c0.004,7.094-3.179,19.098-9.436,20.534c-2.936,0.674-10.373-4.02-11.042-8.938
				c-0.048-0.354-0.095-0.709-0.145-1.066c-0.621-4.596-1.218-9.224-1.218-9.224"/>
			<path style="fill:#0E263F;" d="M656.044,151.383c-0.045,0.983-0.683,1.754-1.414,1.716c-0.735-0.038-1.286-0.867-1.239-1.852
				c0.054-0.987,0.686-1.754,1.421-1.718C655.541,149.567,656.096,150.395,656.044,151.383z"/>
			<path style="fill:#0E263F;" d="M665.958,151.944c-0.048,0.983-0.684,1.754-1.416,1.718c-0.734-0.04-1.284-0.871-1.232-1.855
				c0.048-0.987,0.682-1.756,1.414-1.718C665.451,150.128,666.01,150.955,665.958,151.944z"/>
			<path style="fill:#F29A86;" d="M662.438,158.451c-0.244,0.118-1.567,0.58-1.993,0.503c-0.425-0.076-2.215-0.79-2.31-1.006
				C658.04,157.733,662.903,158.23,662.438,158.451z"/>
			<g>
				<path style="fill:#0E263F;" d="M655.979,146.999c0.008,0.006-0.106-0.033-0.222-0.034c-0.113-0.01-0.278-0.027-0.481-0.055
					c-0.094-0.022-0.198-0.03-0.308-0.034c-0.106-0.007-0.212-0.045-0.323-0.041c-0.222,0.013-0.448-0.061-0.678-0.013
					c-0.115,0.013-0.23,0.017-0.349,0.01c-0.116,0.022-0.227,0.069-0.342,0.089c-0.117,0.022-0.232,0.043-0.339,0.063
					c-0.113,0.017-0.209,0.082-0.307,0.116c-0.391,0.142-0.707,0.221-0.707,0.221l-0.127,0.033c-0.27,0.067-0.544-0.096-0.611-0.366
					c-0.038-0.15-0.003-0.303,0.082-0.42c0,0,0.209-0.287,0.605-0.694c0.106-0.092,0.204-0.214,0.344-0.302
					c0.148-0.078,0.306-0.161,0.469-0.246c0.166-0.083,0.341-0.163,0.525-0.232c0.194-0.043,0.397-0.076,0.6-0.101
					c0.204-0.025,0.407-0.063,0.608-0.026c0.199,0.03,0.394,0.059,0.584,0.087c0.183,0.047,0.349,0.13,0.507,0.194
					c0.154,0.076,0.3,0.143,0.416,0.24c0.234,0.172,0.419,0.348,0.534,0.503c0.125,0.145,0.125,0.22,0.137,0.221
					c0.218,0.17,0.255,0.485,0.085,0.702C656.51,147.132,656.195,147.17,655.979,146.999z"/>
			</g>
			<g>
				<path style="fill:#0E263F;" d="M663.453,146.591c0,0,0.012-0.011,0.033-0.032c0.011-0.015,0.061-0.057,0.172-0.106
					c0.12-0.053,0.179-0.072,0.277-0.11c0.093-0.03,0.193-0.066,0.306-0.088c0.44-0.083,1.047-0.123,1.648,0.093
					c0.302,0.089,0.591,0.258,0.837,0.446c0.244,0.2,0.422,0.441,0.541,0.659c0.245,0.439,0.213,0.775,0.229,0.768
					c0.098,0.258-0.032,0.547-0.291,0.645c-0.259,0.098-0.547-0.033-0.645-0.291c0,0-0.05-0.034-0.112-0.095
					c-0.056-0.068-0.164-0.134-0.256-0.223c-0.218-0.154-0.475-0.319-0.818-0.454c-0.337-0.126-0.742-0.228-1.043-0.262
					c-0.074-0.011-0.141-0.021-0.2-0.03c-0.05-0.007-0.122-0.008-0.105-0.024c0.006-0.022-0.023-0.033-0.064-0.018
					c-0.03,0.005-0.047,0.008-0.047,0.008l-0.022,0.004c-0.282,0.048-0.55-0.14-0.599-0.422
					C663.264,146.881,663.33,146.706,663.453,146.591z"/>
			</g>
			<path style="fill:#FFFFFF;" d="M662.461,161.701c-0.189-0.45-6.649-0.696-7.103-0.473c-0.457,0.223,2.074,1.77,3.53,1.883
				C660.016,163.198,662.688,162.235,662.461,161.701z"/>
			<path style="fill:#F29A86;" d="M640.303,152.481c0.456,2.369,2.493,5.318,4.211,4.29c1.38-0.831,0.272-7.977-1.652-8.245
				C640.794,148.238,639.838,150.112,640.303,152.481z"/>
			<path style="fill:#0E263F;" d="M667.271,145.549c-0.141-6.276-9.139-4.456-9.995-11.296c0,0,0.342,4.577-5.003,6.053
				c-3.802,1.052-4.778,4.211-4.255,7.65c0.524,3.438-0.295,6.751-1.206,6.271c-0.629-0.331-1.099-5.005-3.078-6.01
				c-1.743-0.887-2.898,0.422-3.112,1.313c-0.435,0.864-2.164-1.131-2.164-1.132c0.049-7.041-1.139-12.249,3.914-17.835
				c2.759-3.051,7.596-4.23,11.942-4.219c5.693,0.014,12.557,3.639,14.043,11.508C669.307,142.893,667.271,145.549,667.271,145.549z
				"/>
			<path style="fill:#FFFFFF;" d="M562.869,322.938c0.328-0.167,3.023-1.74,3.305-1.911c0.343-0.197,0.446-0.458,0.192-0.903
				c-0.739-1.308-2.614-4.53-3.235-5.606c-0.786-1.356-5.982-1.337-6.833,0.036c-0.683,1.104-2.563,4.407-3.276,5.667l-1.123-0.647
				c0,0-0.403-0.272-0.237,0.386c0.142,0.546,0.982,3.669,1.29,4.811c0.07,0.262,0.245,0.385,0.467,0.324
				c1.106-0.297,4.46-1.194,4.974-1.331c0.614-0.164,0.052-0.412,0.052-0.412l-1.059-0.611l2.339-4.05c0,0,2.207,3.804,2.377,4.097
				C562.269,323.078,562.541,323.104,562.869,322.938z"/>
			<path style="fill:#FFFFFF;" d="M556.836,331.057c-0.453-0.451-0.386,0.161-0.386,0.161v1.22h-4.677c0,0,2.191-3.813,2.361-4.106
				c0.167-0.293,0.056-0.541-0.254-0.739c-0.31-0.202-3.019-1.749-3.306-1.909c-0.347-0.198-0.621-0.155-0.882,0.285
				c-0.761,1.295-2.612,4.529-3.234,5.607c-0.786,1.355,1.832,5.847,3.445,5.897c1.296,0.041,5.096,0.016,6.546,0.005v1.296
				c0,0-0.03,0.487,0.455,0.013c0.402-0.393,2.686-2.686,3.52-3.523c0.191-0.19,0.212-0.403,0.049-0.566
				C559.664,333.887,557.211,331.43,556.836,331.057z"/>
			<path style="fill:#FFFFFF;" d="M572.934,331.935c-0.613-1.145-2.533-4.424-3.269-5.673l1.121-0.647c0,0,0.439-0.216-0.214-0.398
				c-0.544-0.152-3.667-0.984-4.813-1.289c-0.261-0.07-0.455,0.021-0.516,0.242c-0.295,1.105-1.194,4.458-1.33,4.973
				c-0.167,0.613,0.33,0.251,0.33,0.251l1.057-0.612l2.338,4.053c0,0-4.398,0.009-4.735,0.009c-0.338,0-0.496,0.224-0.517,0.59
				c-0.017,0.368-0.002,3.487,0,3.816c0.005,0.398,0.179,0.614,0.689,0.62c1.505,0.013,5.232,0,6.475,0
				C571.114,337.869,573.698,333.359,572.934,331.935z"/>
		</g>
	</g>
	<g>
		<g>
			<g>
				<g>
					<path style="fill:#4FC9B8;" d="M204.893,426.203c-0.087-2.049,2.134-9.538,2.469-11.925c0.698-4.956,1.991-9.938,3.751-14.628
						c1.261-3.363,3.369-7.064,6.228-9.347c1.371-1.098,3.753-2.392,5.563-1.705c4.403,1.672,0.982,10.821-0.359,13.493
						C218.903,409.338,211.294,421.115,204.893,426.203L204.893,426.203z"/>
					<path style="fill:#9B9B9B;" d="M225.04,393.509l0.04-0.174c-0.032-0.005-2.909-0.657-5.224,0.138
						c1.827-2.952,3.081-4.768,3.12-4.823l-0.145-0.102c-0.038,0.055-1.282,1.855-3.096,4.783c0.077-2.638-0.688-4.061-0.721-4.123
						l-0.155,0.085c0.008,0.015,0.836,1.557,0.689,4.342c-1.272,2.064-2.805,4.655-4.391,7.573c0.54-4.781-0.4-8.11-0.41-8.145
						l-0.17,0.048c0.01,0.037,0.999,3.531,0.354,8.507l-0.001,0.011c-1.198,2.22-2.42,4.621-3.58,7.116
						c0.241-5.094-0.674-7.637-0.685-7.663l-0.165,0.062c0.01,0.025,0.966,2.679,0.651,8.027v0.003
						c-0.893,1.944-1.745,3.941-2.515,5.955c0.156-4.027-0.288-5.832-0.291-5.851l-0.172,0.044c0.005,0.02,0.48,1.955,0.262,6.332
						c-0.729,1.945-1.379,3.901-1.913,5.831l0.17,0.047c0.533-1.929,1.182-3.882,1.911-5.825c2.085-2.132,6.453-2.39,6.497-2.392
						l-0.01-0.176c-0.043,0.002-4.127,0.242-6.343,2.191c0.785-2.064,1.657-4.112,2.574-6.104c3.398-2.507,8.001-1.635,8.047-1.625
						l0.034-0.174c-0.046-0.01-4.501-0.854-7.934,1.479c1.177-2.538,2.42-4.979,3.636-7.233c2.336-1.917,8.04-1.01,8.099-1.001
						l0.027-0.174c-0.228-0.037-5.393-0.856-7.93,0.811c1.59-2.927,3.128-5.525,4.402-7.594
						C222.003,392.82,225.008,393.501,225.04,393.509z"/>
				</g>
				<g>
					<path style="fill:#4FC9B8;" d="M204.771,425.828c-1.732-1.1-3.74-3.107-5.508-4.745c-3.674-3.401-7.026-7.307-9.874-11.428
						c-2.043-2.955-3.88-6.798-4.124-10.446c-0.118-1.753,0.18-4.447,1.776-5.542c3.885-2.662,9.447,5.368,10.875,7.994
						C201.79,408.786,204.246,417.668,204.771,425.828L204.771,425.828z"/>
					<path style="fill:#9B9B9B;" d="M192.29,394.714l-0.119-0.131c-0.022,0.02-2.199,2.013-2.867,4.369
						c-1.383-3.185-2.158-5.252-2.182-5.315l-0.165,0.062c0.023,0.063,0.791,2.11,2.162,5.271c-2.122-1.566-3.728-1.753-3.798-1.759
						l-0.018,0.175c0.018,0.002,1.755,0.201,3.959,1.91c0.97,2.225,2.223,4.96,3.714,7.927c-3.617-3.171-6.89-4.298-6.922-4.31
						l-0.057,0.168c0.035,0.01,3.47,1.194,7.188,4.563l0.008,0.007c1.14,2.251,2.413,4.625,3.801,6.999
						c-4.045-3.104-6.657-3.802-6.684-3.809l-0.044,0.172c0.026,0.006,2.751,0.733,6.965,4.044l0.002,0.003
						c1.086,1.842,2.241,3.681,3.454,5.461c-3.217-2.424-4.951-3.089-4.969-3.098l-0.064,0.167c0.02,0.007,1.881,0.721,5.351,3.396
						c1.181,1.709,2.416,3.36,3.697,4.899l0.135-0.112c-1.28-1.539-2.513-3.188-3.692-4.895c-0.563-2.929,1.717-6.662,1.741-6.7
						l-0.15-0.092c-0.023,0.035-2.156,3.528-1.819,6.459c-1.246-1.823-2.432-3.707-3.544-5.596c-0.12-4.222,3.223-7.504,3.256-7.537
						l-0.124-0.127c-0.033,0.032-3.268,3.21-3.311,7.359c-1.414-2.415-2.708-4.827-3.865-7.114c-0.242-3.01,3.758-7.178,3.799-7.221
						l-0.127-0.123c-0.161,0.167-3.782,3.943-3.858,6.977c-1.496-2.977-2.753-5.721-3.726-7.947
						C189.994,396.815,192.268,394.735,192.29,394.714z"/>
				</g>
				<g>
					<path style="opacity:0.5;fill:#C1C1C1;" d="M196.003,398.715c0,0-1.483-2.084-2.72-3.146c0,0,2.711,19.653,11.556,30.202
						l-1.193-3.198l-1.97-14.531L196.003,398.715z"/>
					<g>
						<path style="fill:#4FC9B8;" d="M204.893,426.203c0.104-1.373-1.911-4.762-2.493-6.28c-1.909-4.99-3.601-9.93-4.997-15.102
							c-2.244-8.315-3.814-19.142-0.841-27.464c1.099-3.076,3.938-7.953,7.91-6.965c2.966,0.738,4.285,4.634,4.955,7.277
							c1.76,6.945,1.338,14.285,0.758,21.357c-0.668,8.125-2.103,16.242-3.478,24.308L204.893,426.203z"/>
						<path style="fill:#9B9B9B;" d="M204.394,414.6c2.045-6.853,5.431-10.724,5.464-10.761l-0.195-0.174
							c-0.033,0.036-3.266,3.732-5.343,10.285c-0.351-3.146-0.633-6.16-0.855-9.024c3.666-9.006,7.155-11.533,7.19-11.557
							l-0.151-0.216c-0.141,0.101-3.458,2.499-7.083,11.194c-0.286-3.785-0.469-7.311-0.579-10.546
							c2.992-8.348,7.444-11.647,7.489-11.679l-0.154-0.212c-0.044,0.032-4.341,3.215-7.356,11.2
							c-0.124-4.017-0.131-7.574-0.079-10.612c1.572-6.647,5.097-9.064,5.133-9.088l-0.145-0.216
							c-0.034,0.021-3.265,2.23-4.965,8.186c0.161-7.039,0.636-11.007,0.648-11.099l-0.26-0.033
							c-0.012,0.096-0.519,4.328-0.665,11.811c-0.701-1.252-2.914-4.939-5.321-6.167l-0.119,0.232
							c2.751,1.403,5.351,6.314,5.43,6.464c-0.051,3.024-0.042,6.557,0.08,10.541c-0.662-1.417-2.702-4.904-7.526-7.285
							l-0.116,0.234c6.049,2.985,7.646,7.721,7.66,7.768l0.006,0.022c0.109,3.194,0.289,6.669,0.569,10.397
							c-0.671-1.205-2.616-3.976-7.181-6.141l-0.113,0.236c5.872,2.783,7.33,6.56,7.344,6.6l0.002,0.005
							c0.208,2.669,0.468,5.47,0.786,8.384c-0.579-0.979-1.972-2.496-5.311-4.439l-0.131,0.227c4.472,2.603,5.366,4.408,5.54,5.107
							c0.374,3.314,0.825,6.777,1.367,10.374l0.258-0.039C205.194,421.125,204.758,417.796,204.394,414.6z"/>
					</g>
					<path style="opacity:0.5;fill:#C1C1C1;" d="M210.536,401.25c0,0,0.415,9.444-1.542,16.957l-3.243,7.279
						c0,0,3.659-18.486,3.93-21.434L210.536,401.25z"/>
				</g>
			</g>
		</g>
		<path style="opacity:0.5;fill:#C1C1C1;" d="M223.62,425.784c0,1.204-8.385,2.181-18.729,2.181
			c-10.344,0-18.729-0.977-18.729-2.181c0-1.206,8.385-2.183,18.729-2.183C215.235,423.602,223.62,424.578,223.62,425.784z"/>
	</g>
</g>
</svg>
